<?xml version="1.0" standalone="no"?>
<!DOCTYPE svg PUBLIC "-//W3C//DTD SVG 1.1//EN" "http://www.w3.org/Graphics/SVG/1.1/DTD/svg11.dtd" >
<svg xmlns="http://www.w3.org/2000/svg" xmlns:xlink="http://www.w3.org/1999/xlink" version="1.1">
<metadata>
Created by FontForge 20160407 at Sun May 29 16:29:52 2016
 By Jimmy Wärting
Vanessa Bays @ bythebutterfly.com
</metadata>
<defs>
<font id="AllThingsPinkSkinny" horiz-adv-x="494" >
  <font-face 
    font-family="All Things Pink Skinny"
    font-weight="100"
    font-stretch="normal"
    units-per-em="1000"
    panose-1="2 0 2 3 0 0 0 0 0 0"
    ascent="800"
    descent="-200"
    x-height="476"
    cap-height="702"
    bbox="-168.538 -185.087 891.542 865.029"
    underline-thickness="50"
    underline-position="-150"
    unicode-range="U+0020-F8FF"
  />
<missing-glyph horiz-adv-x="364" 
d="M46 23h219v620h-219v-620zM33 10v646h245v-646h-245z" />
    <glyph glyph-name=".notdef" horiz-adv-x="364" 
d="M46 23h219v620h-219v-620zM33 10v646h245v-646h-245z" />
    <glyph glyph-name=".null" horiz-adv-x="0" 
 />
    <glyph glyph-name="nonmarkingreturn" horiz-adv-x="333" 
 />
    <glyph glyph-name="space" unicode=" " horiz-adv-x="300" 
 />
    <glyph glyph-name="exclam" unicode="!" horiz-adv-x="160" 
d="M78 707q-1 -23 -4 -127t-3 -146.5t5.5 -118.5t17.5 -137q2 -8 -2.5 -15t-12.5 -8.5t-15 3t-8 12.5q-14 61 -19.5 140t-5.5 123t3.5 149.5t3.5 126.5q0 8 6 13.5t14.5 5.5t14 -6t5.5 -15zM105 43q0 -8 -6 -14t-14 -6t-14 6t-6 14t6 14t14 6t14 -6t6 -14z" />
    <glyph glyph-name="quotedbl" unicode="&#x22;" horiz-adv-x="244" 
d="M55 690q0 -98 5 -155q1 -9 -4.5 -15t-14 -7t-14.5 4.5t-7 13.5q-5 58 -5 159q0 8 6 14t14 6t14 -6t6 -14zM177 683q1 -14 4.5 -78.5t7.5 -99.5q1 -9 -4 -15.5t-13.5 -7.5t-15 4t-7.5 13q-4 36 -7.5 102t-4.5 80q-1 8 4.5 14t14 7t14.5 -4.5t7 -14.5z" />
    <glyph glyph-name="numbersign" unicode="#" horiz-adv-x="599" 
d="M363 276q-11 72 -18 161l-92 -25l-72 -22q3 -75 5 -153l86 18zM369 237l-89 -20l-94 -21q1 -54 1 -99q0 -8 -6 -14t-13.5 -6t-14 6t-6.5 14v90q-66 -12 -118 -21q-8 -1 -14.5 4t-8 13t3.5 15t14 8q52 8 123 22l-5 151l-106 -27q-8 -2 -15 2t-9 12t2.5 15t12.5 9
q54 13 114 31q-7 131 -16 266q0 8 5.5 14t13.5 7t14.5 -5t6.5 -14q9 -127 15 -257l61 17q63 18 103 28q-3 40 -5 99.5t-3 77.5q0 7 5.5 13t14 7t14.5 -5t6 -15q1 -19 3 -72.5t4 -94.5l78 15q8 1 15 -4t8.5 -13t-3.5 -15t-13 -8q-35 -5 -82 -16q6 -88 16 -161l120 23
q8 1 15 -4t8.5 -13t-3.5 -15t-13 -8q-57 -10 -121 -23q14 -72 32 -129q2 -8 -2 -15.5t-12 -9.5t-15 1.5t-10 11.5q-18 58 -32 133z" />
    <glyph glyph-name="dollar" unicode="$" horiz-adv-x="489" 
d="M334 479q-13 65 -51 91.5t-84 21.5q-45 -4 -72 -30q-26 -23 -19 -47q8 -30 66 -73q21 -15 63 -44l63 -43l36 -28q15 -13 33 -30t30.5 -33t23.5 -36t16 -39.5t4.5 -42.5t-8.5 -47q-12 -36 -38.5 -60.5t-60 -33t-70.5 -7.5q-35 2 -71 14q-36 11 -67 32t-54.5 50t-33 68
t-0.5 82q1 8 8 12.5t15 3t12.5 -8.5t2.5 -15q-13 -64 25 -114.5t104 -72.5q65 -20 119.5 -3.5t69.5 65.5q20 58 -12.5 107.5t-106.5 103.5l-65 44q-42 29 -62 44q-69 52 -81 95q-12 48 31 88q38 33 94 39q62 7 113 -29t65 -118q2 -8 -2.5 -14.5t-13 -8t-15 3t-7.5 13.5z
M275 -52q-1 -12 -2 -32q0 -19 -1 -24q-2 -35 -5 -60q-1 -7 -8 -12t-15.5 -4t-13.5 8t-3 15q4 22 5 54q1 5 1 27q1 18 2 30q0 8 6.5 14t14.5 5t13.5 -7t5.5 -14zM261 765q-2 -45 -7 -83q-1 -7 -8 -12.5t-15 -4.5t-13 8t-4 15q5 36 7 77q0 9 6 15t14.5 5t14 -7t5.5 -13z" />
    <glyph glyph-name="percent" unicode="%" horiz-adv-x="630" 
d="M574 680q-248 -313 -375 -663q-3 -8 -10.5 -11t-15 -0.5t-11 10t-0.5 15.5q129 355 380 675q5 6 13.5 7t15 -4t7.5 -13.5t-4 -15.5zM213 490q0 -8 -6 -14t-14 -6t-14 6t-6 14t6 14t14 6t14 -6t6 -14zM450 102q0 -8 -6 -14t-14 -6t-14 6t-6 14t6 14t14 6t14 -6t6 -14z" />
    <glyph glyph-name="ampersand" unicode="&#x26;" horiz-adv-x="549" 
d="M298 219q34 4 87 18q68 18 90 22q8 2 15 -2.5t8.5 -12.5t-3 -15t-12.5 -8q-23 -5 -61 -16q-2 -7 -4 -8q-69 -103 -133 -159q-110 -97 -200 -45q-32 18 -43 50t-6.5 61.5t19.5 63.5q28 69 96 149q-37 2 -52 7q-56 20 -54 88q2 56 43 122.5t94 105.5q61 46 108 30
q54 -21 62 -119q0 -8 -5 -14t-13.5 -7t-15 4.5t-6.5 14.5q-6 71 -36 82q-26 10 -71 -23q-47 -34 -83 -93t-37 -105q-1 -38 26 -48q29 -10 76 3q8 2 13.5 4t11.5 4l9 4q3 3 10 7t14 7l22 13q8 4 9 4q2 0 4 2l2 1h5q9 0 15 -7q8 -9 2 -22q0 -2 -2 -4l-6 -5h-1q-2 -1 -12 -7.5
t-13 -8t-11.5 -7t-13.5 -8.5l-10 -8l-12 -8q-3 -2 -10 -7l-11 -10l-9 -9l-10 -10q-22 -23 -48.5 -61t-42.5 -77q-40 -94 13 -125q64 -37 154 40q44 39 107 124q-45 -9 -63 -12q-7 -1 -14 4t-8 13t4 15t13 8z" />
    <glyph glyph-name="quotesingle" unicode="'" horiz-adv-x="108" 
d="M52 747q1 -53 1 -137q0 -8 -6 -14t-14 -6t-14 6t-6 14q0 84 -1 135q0 9 5.5 15t14 6t14.5 -5.5t6 -13.5z" />
    <glyph glyph-name="parenleft" unicode="(" horiz-adv-x="208" 
d="M125 734q-36 -73 -56 -171.5t-20 -199.5q1 -108 26 -201t74 -155q5 -7 4 -15.5t-7.5 -13.5t-15 -4t-13.5 7q-54 70 -80.5 169.5t-27.5 211.5q0 106 21.5 209.5t58.5 180.5q3 7 11 9.5t15.5 -0.5t10 -11t-0.5 -16z" />
    <glyph glyph-name="parenright" unicode=")" horiz-adv-x="209" 
d="M23 6q54 101 78.5 233t9.5 269t-77 227q-5 6 -3.5 14.5t8.5 13t15 3t13 -8.5q51 -73 73 -177t16 -209t-31 -205.5t-65 -178.5q-4 -8 -12.5 -10t-15.5 1.5t-9.5 11.5t0.5 16z" />
    <glyph glyph-name="asterisk" unicode="*" horiz-adv-x="427" 
d="M237 516l127 -72q8 -4 10 -12t-2 -15t-12.5 -9t-15.5 2q-32 19 -133 74l-6 -114q0 -8 -6 -14t-14.5 -5t-14 7t-5.5 14l6 105l-123 -67q-8 -4 -16 -2t-11.5 9.5t-1 15.5t9.5 11l127 72q-74 43 -120 76q-6 5 -7.5 13t3.5 15t13.5 8t14.5 -4q44 -31 114 -73q4 63 7 104
q1 8 7.5 14t14.5 5t13.5 -7t4.5 -14q-3 -40 -5 -104l95 52q7 3 15 1t12 -9.5t1.5 -15.5t-9.5 -12z" />
    <glyph glyph-name="plus" unicode="+" horiz-adv-x="385" 
d="M174 576q-5 -60 -2 -120q77 14 139 18q8 1 14.5 -5t7 -14t-5 -14t-13.5 -7q-63 -4 -139 -18q7 -64 24 -134q2 -8 -2.5 -15t-12.5 -9t-15 2t-9 12q-16 71 -24 135q-52 -12 -110 -28q-8 -2 -15.5 2t-9.5 12t2 15t12 9q65 18 118 30q-4 66 1 131q1 9 7.5 14.5t14.5 4.5
t13.5 -7t4.5 -14z" />
    <glyph glyph-name="comma" unicode="," horiz-adv-x="186" 
d="M133 73q-24 -117 -136 -191q-7 -4 -15 -2.5t-12.5 8.5t-3 15t9.5 13q97 64 118 165q2 8 8.5 12.5t14.5 3t13 -8.5t3 -15z" />
    <glyph glyph-name="hyphen" unicode="-" horiz-adv-x="316" 
d="M18 322q82 0 219 26q8 2 15 -2.5t8.5 -12.5t-3 -15t-12.5 -8q-141 -28 -227 -28q-8 0 -14 6t-6 14t6 14t14 6z" />
    <glyph glyph-name="period" unicode="." horiz-adv-x="97" 
d="M42 32q0 -8 -6 -14t-14 -6t-14 6t-6 14t6 14t14 6t14 -6t6 -14z" />
    <glyph glyph-name="slash" unicode="/" horiz-adv-x="500" 
d="M-5 25q20 26 53 81l53 86q50 75 151 241.5t158 249.5q4 7 12.5 8.5t15.5 -3t8.5 -13t-3.5 -14.5q-58 -85 -158.5 -251.5t-150.5 -240.5q-12 -18 -51 -84q-33 -52 -56 -84q-6 -7 -14 -8t-14.5 4t-7.5 13t4 15z" />
    <glyph glyph-name="zero" unicode="0" 
d="M245 658q-40 -6 -44 -8q-59 -22 -98 -121q-41 -97 -43 -215q-2 -121 40 -200q46 -83 133 -85q76 -2 121 80.5t48 206.5q2 124 -38 220q-43 99 -113 120q-2 0 -6 2zM259 694h4q88 -25 138 -143q43 -104 41 -236q-3 -133 -52 -223q-58 -106 -159 -103q-109 3 -166 107
q-47 86 -45 219q2 125 45 229q48 114 120 144q9 2 20 4.5t23 4t13 1.5q9 2 18 -4z" />
    <glyph glyph-name="one" unicode="1" horiz-adv-x="306" 
d="M243 679q0 -113 4 -338t4 -337q0 -8 -6 -14t-14 -6t-14 6t-6 14q0 112 -4 337t-4 338q0 8 6 14t14 6t14 -6t6 -14z" />
    <glyph glyph-name="two" unicode="2" horiz-adv-x="518" 
d="M99 574q1 2 10 11l12 12l12 12l14 12l12 11q8 7 14 11.5l14 10.5l17 10q6 4 14 8q70 35 138 20q37 -9 60.5 -36.5t25.5 -72.5q3 -84 -98 -236q-59 -88 -157 -203l-85 -97q31 0 41 1q22 0 57.5 0.5t40.5 0.5h209q9 0 15 -5.5t6 -14t-5.5 -14.5t-13.5 -6h-211
q-5 0 -40 -0.5t-59 -0.5q-36 -1 -57 0q-12 0 -19 1q-5 1 -8 1.5t-7 2.5q-7 3 -10 11q-7 20 11 35q2 0 11 6l2 3q49 51 92 101q96 114 153 199q95 142 92 213q-2 59 -56 72q-52 13 -109 -17q-20 -9 -42 -27t-32 -28l-37 -36q-6 -6 -14 -6t-14 6t-6 14t7 15z" />
    <glyph glyph-name="three" unicode="3" horiz-adv-x="554" 
d="M121 614q31 34 73.5 58.5t83.5 29.5q49 5 84 -21q36 -29 48 -90q8 -45 -12 -85.5t-55 -70.5l-28 -24q73 -22 116.5 -63.5t58.5 -97.5q15 -57 6 -110t-41 -92q-33 -38 -84 -55q-49 -17 -110 -4q-120 24 -209 142q-5 7 -4 15t7.5 13t14.5 4t14 -8q81 -107 185 -128
q99 -19 155 48q25 30 33 71.5t-6 93.5q-15 54 -62.5 92t-103.5 42h-4q-3 0 -7.5 -1t-10.5 -1q-25 -3 -39 9q-8 8 -8 17q0 11 8 18q5 5 15 7q6 2 10 3t5 1.5t3 0.5q10 5 18 8.5t11.5 5t8 5t9 6.5t12.5 10q66 59 55 120q-9 47 -34 66q-21 16 -54 13q-34 -3 -69 -24
q-37 -21 -62 -50q-6 -6 -14.5 -7t-14.5 5t-6.5 14.5t4.5 13.5z" />
    <glyph glyph-name="four" unicode="4" horiz-adv-x="587" 
d="M118 667q0 -7 -1 -44.5t-2 -84t-2 -87.5q-1 -79 -1 -126q1 -27 2 -43v-15q22 -5 48 -8q45 -6 127 -8q48 -1 92 -2q-6 87 -10.5 228t-7.5 200q-1 8 5 14t14 7t14 -5t7 -14q3 -61 7.5 -203t10.5 -227h60h31q8 0 14 -6t6 -14t-6 -14t-14 -6h-30h-58q10 -110 25 -195
q1 -8 -3.5 -14.5t-13 -8t-15 3t-8.5 13.5q-15 86 -25 201q-57 0 -97 2q-82 2 -130 8q-29 3 -46 8q-10 3 -17 7q-12 6 -16 16q-3 7 -4 28q-1 18 -2 47q0 47 1 127q1 41 2 87.5t2 84.5t1 45q0 8 6 13.5t14.5 5.5t14 -6t5.5 -15z" />
    <glyph glyph-name="five" unicode="5" horiz-adv-x="518" 
d="M392 648q-1 0 -151 -2q-58 0 -90 -1q-16 -1 -31 -1q-6 -14 -9 -24q-9 -27 -17 -68l-13 -63q36 18 43 22t20 8t32 9q49 12 91 2.5t76.5 -35.5t60 -61.5t38.5 -78.5q25 -70 22 -138.5t-34 -120.5q-32 -54 -91.5 -81.5t-140.5 -21.5q-109 8 -189 76q-6 5 -6.5 13.5t5 14.5
t14 7t14.5 -5q69 -59 165 -66q139 -10 195 84q26 42 28.5 100t-19.5 126q-27 78 -86.5 121.5t-133.5 25.5q-10 -3 -16.5 -4.5t-11.5 -3.5t-12 -5l-9 -4q-3 -2 -13 -7.5t-19 -10.5l-1 -2v1l-6 -5q-2 -3 -5 -5q-22 -19 -41 -7q-8 6 -10 17q-1 5 -1 11q0 9 2 26q4 29 12.5 69.5
t18.5 70.5q5 17 9 27q7 15 14 20l9 4q3 0 5 1h9q11 1 31 2q32 1 91 1q148 2 150 2q8 1 14 -5t6.5 -14t-5 -14t-14.5 -7z" />
    <glyph glyph-name="six" unicode="6" horiz-adv-x="497" 
d="M117 71q16 -19 29 -31q54 -43 119 -13q62 29 106 106q45 75 42 142q-5 65 -62 84q-33 10 -60 0t-57 -39q-25 -24 -56 -78q-24 -42 -56 -159q-1 -4 -5 -12zM359 595q-62 92 -118 79q-55 -12 -105 -115q-27 -55 -46 -127q-20 -71 -23 -146q-4 -79 21 -171q32 105 55 147
q34 60 65 88q76 72 155 47q42 -13 64.5 -45t24.5 -76q5 -78 -46 -164t-125 -121q-87 -41 -160 19q-104 85 -94 278q4 76 24 153t49 136q59 119 132 136q83 19 160 -95q5 -8 3.5 -16t-8.5 -12.5t-15 -3t-13 8.5z" />
    <glyph glyph-name="seven" unicode="7" horiz-adv-x="449" 
d="M46 689q20 -1 189 4q68 2 97 2q20 0 32 -2q7 0 12 -1q4 -2 7 -4q7 -4 10 -13t-1 -25q-3 -10 -7 -26q-10 -25 -28 -65l-32 -65q-20 -41 -20 -42q-113 -240 -151 -441q-1 -9 -7.5 -13.5t-15 -3t-13 8t-2.5 14.5q38 208 154 455l19 38q19 39 31 66q18 38 26 61l9 18h-24
q-26 0 -94 -2q-171 -5 -193 -4q-8 0 -13.5 6.5t-5.5 14.5t6.5 13.5t14.5 5.5z" />
    <glyph glyph-name="eight" unicode="8" horiz-adv-x="446" 
d="M199 486q70 73 142 131q-31 35 -67.5 43t-69.5 -2q-38 -11 -59 -34q-18 -23 -12 -44q11 -38 66 -94zM382 618q6 -16 -6 -25q-72 -57 -148 -135l19 -19q34 -32 54.5 -53.5t44.5 -58t35 -72.5q30 -100 -7 -173q-41 -82 -148 -88q-17 -1 -29 -1q-13 0 -28.5 3t-31.5 12
q-105 52 -110 151q-3 79 60 183q32 51 85 113q-63 65 -78 113q-12 44 21 82q29 32 78 46q34 8 66.5 7t65.5 -19t53 -52q4 -6 4 -14zM201 427q-49 -58 -80 -107q-57 -92 -54 -159q4 -75 87 -117q18 -9 33 -10.5t39 0.5q81 4 113 65q30 59 3 144q-13 45 -43 83t-79 84z" />
    <glyph glyph-name="nine" unicode="9" horiz-adv-x="444" 
d="M353 570q-2 8 -3 19t-1 12q-4 15 -7 22q-16 34 -66 28q-47 -4 -84 -32q-68 -49 -104 -137.5t-7 -158.5q20 -48 68 -51q47 -4 86 33q10 11 20 25t16.5 25t15 30.5t12.5 28.5l12 35q9 23 12 31l2 7q2 6 6 17t6 20l11 31l3 10zM361 464q-56 -145 -98 -187q-52 -51 -119 -45
q-32 3 -58.5 22t-41.5 53q-25 62 -11 128.5t50.5 124t83.5 91.5t105 40q77 8 106 -48q6 -14 10 -34q0 -1 1.5 -12t2.5 -15.5t1 -10.5q3 -4 3 -6q4 -9 5 -24q3 -23 2 -64q0 -20 -1 -44t-2 -44t-1 -22q-7 -190 -3 -359q0 -9 -6 -15t-14 -6t-14 5.5t-6 13.5q-4 172 3 363
q0 3 1 17.5t1 77.5z" />
    <glyph glyph-name="colon" unicode=":" horiz-adv-x="161" 
d="M106 432q0 -8 -6 -14t-14 -6t-14 6t-6 14t6 14t14 6t14 -6t6 -14zM97 86q0 -8 -6 -14t-14 -6t-14 6t-6 14t6 14t14 6t14 -6t6 -14z" />
    <glyph glyph-name="semicolon" unicode=";" horiz-adv-x="124" 
d="M58 39q-1 -44 -19 -72.5t-56 -54.5q-8 -4 -16 -2.5t-12.5 8.5t-3 15t8.5 13q32 21 44.5 41t13.5 54q0 8 6.5 13.5t14.5 5.5t13.5 -6.5t5.5 -14.5zM71 427q0 -8 -6 -14t-14 -6t-14 6t-6 14t6 14t14 6t14 -6t6 -14z" />
    <glyph glyph-name="less" unicode="&#x3c;" horiz-adv-x="354" 
d="M284 410q-30 -27 -152 -119l-73 -55l-20 -16q15 -15 26 -25q28 -22 78 -51q29 -18 146 -78q7 -4 9.5 -12t-1 -15.5t-11.5 -9.5t-16 1q-117 62 -148 80q-52 30 -82 54q-18 14 -29 27q-14 16 -15 31q-1 9 3 16q2 2 4 4.5t7 5.5q9 7 24 20l74 55q118 88 150 117q6 6 14 5
t13.5 -7t5 -14t-6.5 -14z" />
    <glyph glyph-name="equal" unicode="=" horiz-adv-x="360" 
d="M41 458q37 -2 120 2q92 4 124 4q8 0 14 -6t6 -14t-6 -14t-14 -6q-31 0 -121 -4q-84 -4 -123 -2q-9 1 -15 7t-5 14t7 14t13 5zM25 341q17 0 36.5 0.5t43 1t35.5 0.5q71 1 118 -2q9 -1 14.5 -7t4.5 -14.5t-7 -14t-14 -4.5q-46 3 -114 2l-117 -2q-8 0 -14 6t-6 14t6 14t14 6
z" />
    <glyph glyph-name="greater" unicode="&#x3e;" horiz-adv-x="356" 
d="M243 232l18 18l16 6l-16 15q-14 8 -18 -10v-29zM6 72q26 21 158 111l75 51l21 15q-14 17 -26 27q-26 23 -74 53q-25 17 -55 36l-56 33q-26 15 -33 18q-6 4 -8 12t2.5 15t12.5 9t15 -2q6 -4 32 -19l56 -34l56 -33q51 -34 79 -59q40 -35 42 -60q0 -5 -1.5 -8.5t-1.5 -4.5
l-2 -2q-2 -3 -4.5 -5.5t-7.5 -5.5l-23 -18l-76 -52q-131 -90 -155 -109q-7 -5 -15.5 -4t-13.5 7.5t-4 15t7 13.5z" />
    <glyph glyph-name="question" unicode="?" horiz-adv-x="418" 
d="M-7 508q19 29 63 71.5t91 73.5q60 38 106 43q63 7 96 -42q14 -20 16.5 -48.5t-4.5 -48.5q-10 -29 -28.5 -60t-29.5 -46.5t-43.5 -52.5t-35.5 -41q-44 -51 -66 -98t-18 -108q1 -8 -4.5 -14t-14 -7t-14.5 5t-7 14q-3 70 21.5 124.5t71.5 110.5l37 42q31 36 41 49t27 40.5
t24 53.5q6 15 3.5 33.5t-9.5 28.5q-20 31 -58 26q-37 -4 -89 -38q-44 -29 -85 -69t-58 -64q-5 -7 -13 -8.5t-15 3t-8.5 12.5t3.5 15zM140 29q0 -8 -6 -14t-13.5 -6t-14 6t-6.5 14t6.5 14t14 6t13.5 -6t6 -14z" />
    <glyph glyph-name="at" unicode="@" horiz-adv-x="767" 
d="M453 443q-23 52 -57 57q-31 6 -69 -24q-39 -29 -62.5 -78t-15.5 -90q10 -50 56 -55q20 -2 42 7t37 27q36 44 52 94q1 2 4 30q1 13 3 19q2 5 10 13zM456 325q-25 -44 -42 -64q-21 -26 -52 -38.5t-61 -9.5q-34 4 -58.5 26t-31.5 61q-12 55 17 114q28 58 75 94q52 40 101 31
q58 -9 85 -82q4 -10 -6 -24q10 -20 7 -44q-2 -22 -2 -26q9 -42 23 -70q16 -28 36.5 -32t43.5 12q25 16 43.5 45.5t22.5 58.5q8 58 -7 108.5t-47.5 85.5t-76.5 57t-95 29q-69 9 -133.5 -9t-117.5 -70t-74 -131q-23 -95 -10.5 -171t58.5 -133t119 -88q74 -30 167 -26
q76 3 143.5 35t106.5 90q5 7 13.5 8.5t15 -3t8 -13t-2.5 -14.5q-47 -67 -123 -103.5t-160 -39.5q-101 -4 -184 30q-82 33 -134 98t-67 152.5t11 188.5q19 68 58 119t89.5 78.5t107.5 38.5t114.5 2.5t107.5 -33.5t87.5 -65t56 -99t9.5 -128q-5 -37 -28.5 -74t-55.5 -58
q-37 -24 -72 -17q-40 7 -64 53q-8 13 -21 50z" />
    <glyph glyph-name="A" unicode="A" horiz-adv-x="625" 
d="M146 249q128 21 233 23q-25 72 -68 208q0 1 -4 17t-11 41l-11 49l-12 35l-52 -157zM133 207q-37 -114 -57 -201q-1 -8 -8 -12.5t-15 -3t-12.5 8.5t-2.5 15q16 76 50 186q-26 -6 -32.5 -1.5t-8 13t3 15t12.5 7.5l39 8l82 237l51 157l10 32q4 14 7 22q2 6 2.5 8.5t2.5 3.5
q1 5 3 6q5 4 11 5q9 1 17 -6q4 -3 6 -10q2 -3 4 -8q3 -8 7 -24l19 -68l11 -47l10 -41q4 -15 5 -17q46 -148 72 -220q39 0 69 -3q8 -1 13.5 -7t5 -14.5t-7 -14t-15.5 -4.5q-16 2 -49 2q58 -135 130 -229q5 -6 4 -14.5t-7.5 -13.5t-15 -4t-13.5 8q-80 103 -141 255
q-116 -1 -262 -26z" />
    <glyph glyph-name="B" unicode="B" horiz-adv-x="512" 
d="M74 482q2 -49 3 -108l67 32q49 23 77 38q87 48 106 97q19 47 -5 84q-24 34 -73 25q-52 -10 -98 -57.5t-77 -110.5zM76 99q46 -33 105 -51q59 -16 111 -12q60 4 93 36q36 36 33 103q-4 66 -53.5 122.5t-112.5 62.5q-68 7 -122 -7q-7 -3 -27 -12l-12 -5l-3 -1h-9
q2 -127 -3 -236zM230 403q108 -13 166 -80t62 -146q3 -85 -45 -133q-43 -42 -117 -48q-51 -4 -106.5 9t-114.5 46l-5 -74q-1 -9 -7.5 -14.5t-14.5 -4.5t-13.5 7t-4.5 14q22 272 -8 697q-1 8 4.5 14t13.5 7t14.5 -5t7.5 -14q3 -51 8 -122q87 118 172 134q37 7 67 -5
q29 -12 46 -39q17 -24 20 -57q2 -31 -11 -62q-22 -58 -134 -124z" />
    <glyph glyph-name="C" unicode="C" horiz-adv-x="539" 
d="M323 557q-26 68 -64 90q-30 17 -66 2t-70 -59q-33 -42 -51 -98q-36 -115 -31 -225q7 -133 76 -202q24 -23 67 -35q92 -23 169 54q66 66 97 171q3 8 10.5 11.5t15.5 1.5t11.5 -9.5t1.5 -15.5q-35 -115 -108 -188q-93 -92 -206 -63q-54 14 -86 45q-80 78 -88 228
q-6 119 32 239q21 62 59.5 112.5t85.5 70.5q53 22 101 -6q50 -28 82 -109q2 -8 -1.5 -15.5t-11 -10.5t-15 0.5t-10.5 10.5z" />
    <glyph glyph-name="D" unicode="D" horiz-adv-x="543" 
d="M76 38q194 -21 293 55q112 87 68 272q-21 90 -79 159.5t-141 100.5q-39 15 -143 16q20 -305 2 -603zM72 681h19q13 0 18.5 -0.5t19.5 -0.5t21 -1t19.5 -2.5t20.5 -3.5l22 -5q10 -2 18 -5q94 -34 158.5 -112t87.5 -176q24 -110 3 -188q-22 -77 -85 -125q-114 -87 -321 -63
q-9 -16 -21 -15q-8 1 -13.5 7t-4.5 14q23 325 -1 658q-1 8 4.5 14t14.5 7q5 1 12 -3h8z" />
    <glyph glyph-name="E" unicode="E" horiz-adv-x="520" 
d="M56 665q27 1 132 13q95 11 157 10q7 0 13 -6t6 -14.5t-6 -14t-15 -5.5q-58 1 -150 -9q-105 -12 -136 -15q6 -92 6 -221q147 26 236 28q9 0 15 -5.5t6 -14t-6 -14.5t-13 -6q-89 -2 -238 -29q-1 -159 -1 -163q0 -6 -1.5 -36.5t-1.5 -49.5q-1 -30 0 -49q1 -9 1 -18
q7 -7 11 -7q12 -3 38 -3q44 -1 120 7q54 6 134 18l80 12q9 1 15 -4t7 -13.5t-4 -15t-12 -7.5q-1 0 -82 -12t-133 -18q-80 -8 -126 -7q-29 0 -47 5q-26 6 -34 22q-6 11 -8 40q-1 19 0 51q0 20 1.5 49.5t1.5 35.5q0 35 0.5 112.5t0.5 122t-2 110t-6 119.5q-1 8 4.5 14t14.5 7
q14 1 22 -19z" />
    <glyph glyph-name="F" unicode="F" horiz-adv-x="374" 
d="M75 362q3 -83 3 -358q0 -8 -6 -14t-14 -6t-14 6t-6 14v92v100q0 26 -0.5 89.5t-2 99.5t-4 89.5t-7 99t-10.5 89.5q-1 8 4 15t13 8q7 1 13.5 -3t10.5 -18q28 1 133 13q95 11 157 10q7 0 13 -6t6 -14.5t-6 -14t-15 -5.5q-58 1 -150 -9q-104 -12 -134 -15q11 -102 15 -222
q149 27 239 29q9 0 15 -5.5t6 -14t-6 -14.5t-13 -6q-89 -2 -240 -29z" />
    <glyph glyph-name="G" unicode="G" horiz-adv-x="508" 
d="M327 502q-8 46 -29.5 88.5t-48.5 64.5q-28 22 -57 15q-35 -10 -72 -61q-56 -79 -75.5 -202t4.5 -217q22 -89 69 -129q55 -47 136 -41q80 5 123 61q52 67 57 196q-173 -3 -219 -8q-8 -1 -14.5 4t-7.5 13.5t4 15t14 7.5q35 4 73.5 5.5t91.5 2t75 1.5q13 1 19 -12
q5 -6 5 -13q0 -151 -66 -236q-36 -46 -94.5 -66t-118.5 -9q-59 11 -103 49q-57 49 -83 150q-26 99 -4 231q20 132 82 219q46 64 94 77q48 12 91 -21q35 -27 60 -75q24 -51 34 -104q1 -7 -4 -14t-13 -8.5t-14.5 3.5t-8.5 13z" />
    <glyph glyph-name="H" unicode="H" horiz-adv-x="479" 
d="M376 699q-11 -158 -9 -326q26 0 42 -1q7 -1 13 -7t5.5 -14t-7 -14t-14.5 -5q-13 1 -37 1q9 -246 54 -342q4 -8 1 -16t-10.5 -11t-15 -0.5t-11.5 9.5q-48 105 -58 360q-127 -4 -243 -42q-1 -178 -19 -304q-1 -8 -7.5 -13t-15 -4t-13 8t-4.5 15q17 116 18 284l-40 -19
q-7 -3 -15 -0.5t-11.5 10t-1 15.5t9.5 11l58 25q0 60 -3.5 185.5t-3.5 193.5q0 8 6 14t14 6t14 -6t6 -14q0 -63 3.5 -183.5t3.5 -182.5q120 37 242 41q-2 170 9 328q1 9 7.5 14.5t14.5 4.5t13.5 -7t4.5 -14z" />
    <glyph glyph-name="I" unicode="I" horiz-adv-x="419" 
d="M-1 679q162 4 310 23q8 1 14.5 -4t7.5 -13.5t-4 -15t-13 -7.5q-67 -8 -148 -15q5 -97 5.5 -193t-1.5 -222.5t-2 -194.5q106 7 180 -2q8 -1 13 -7.5t4 -15t-7.5 -13.5t-14.5 -4q-33 4 -66.5 5.5t-75 -1.5t-63 -5t-76.5 -8.5t-69 -8.5q-7 -1 -13.5 4t-7.5 13.5t4 15t14 7.5
q15 2 59 7l79 9q0 70 2 194.5t1.5 221.5t-5.5 196q-67 -5 -126 -6q-8 0 -14 5.5t-6 14t5.5 14.5t13.5 6z" />
    <glyph glyph-name="J" unicode="J" horiz-adv-x="508" 
d="M103 689q133 23 333 4q8 -1 13 -7t4.5 -14.5t-7 -14t-14.5 -4.5q-61 6 -120 8q18 -151 13 -313q-7 -223 -57 -306q-14 -23 -37 -38t-50 -17q-67 -5 -111 35q-36 33 -55 95q-6 20 -10.5 43t-7 48.5t-4 42.5t-3 44t-2.5 34q-1 8 4.5 14t13.5 7t14.5 -4.5t7.5 -14.5
q1 -8 2.5 -35t2.5 -42.5t4 -40t7 -45.5t10 -39q16 -53 44 -77q31 -29 80 -25q36 2 55 37q46 74 52 286q5 162 -13 312q-92 0 -163 -13q-8 -1 -14.5 4t-8.5 13t3.5 14.5t13.5 8.5z" />
    <glyph glyph-name="K" unicode="K" horiz-adv-x="505" 
d="M332 627q-5 -6 -25 -28l-54 -60l-58 -64l-81 -92l-26 -32l42 -37l119 -104l124 -108q61 -54 72 -66q6 -6 6 -14.5t-6 -14t-14.5 -5.5t-14.5 6q-10 11 -70 64l-124 109l-119 104l-24 21q-1 -175 -16 -295q-1 -7 -8 -12.5t-15 -4.5t-13 8t-4 15q10 75 13.5 170.5t3 148
t-4 181.5t-4.5 157q0 9 5.5 15t14 6t14.5 -5.5t6 -13.5q1 -41 3.5 -123.5t3.5 -149.5l87 98l57 64l54 59q20 22 25 29q6 6 14 7t14.5 -4.5t7 -13.5t-4.5 -15z" />
    <glyph glyph-name="L" unicode="L" horiz-adv-x="488" 
d="M64 684q6 -271 6 -448v-18q0 -15 -0.5 -38.5t-0.5 -43.5q-1 -40 0 -62v-18l8 -4q15 -5 38 -7q37 -5 107 -6q51 -1 118 1q71 1 73 1q8 0 14 -6t6 -14t-6 -14t-14 -6q-2 0 -73 -1q-68 -2 -119 -1q-70 1 -112 6q-26 3 -42 9q-23 6 -32 16q-1 2 -2.5 4.5t-1.5 4.5l-1 2v3
q-1 4 -1 7v22q-1 23 0 63q0 20 0.5 43.5t0.5 38.5v18q0 177 -6 446q0 9 5.5 15t14 6t14.5 -5.5t6 -13.5z" />
    <glyph glyph-name="M" unicode="M" horiz-adv-x="729" 
d="M491 617l-25 -52l-26 -61q-22 -53 -39 -89q-26 -56 -43 -88q-12 -19 -21 -31q-13 -17 -27 -19q-21 -3 -44 15q-18 13 -38 38q-32 42 -74 118l-58 108q5 -102 6.5 -172t1.5 -116.5t-0.5 -131.5t-0.5 -119q0 -8 -6 -14t-13.5 -6t-14 6t-6.5 14q0 35 0.5 123.5t0 135.5
t-1.5 119.5t-4.5 135.5t-9.5 125q-5 14 4 24q6 5 13 6q8 1 14.5 -4t8.5 -14q4 -10 22 -46l38 -79l41 -76q40 -74 71 -112q17 -21 30 -31l10 -10q15 17 23 33q17 29 42 84l40 91l26 61l23 52l17 32q5 7 7.5 11t6.5 6q13 11 26 0q8 -6 13 -21q3 -9 6 -25q4 -23 7 -64
q2 -28 4 -63q2 -37 3 -43q35 -327 133 -517q4 -8 1.5 -16t-10 -11.5t-15.5 -1.5t-12 10q-101 197 -137 532q0 5 -2.5 43.5t-4.5 62.5q0 9 -6 47z" />
    <glyph glyph-name="N" unicode="N" horiz-adv-x="556" 
d="M85 665l57 -127q42 -93 64 -138t62 -113.5t83 -120.5q20 -25 78 -87l28 -34l-10 63q-20 118 -20 122q-10 97 -13 167.5t6.5 161t38.5 166.5q3 8 10.5 11t15 0.5t11 -10t0.5 -15.5q-26 -73 -35 -158q-10 -85 -7.5 -154.5t13.5 -165.5q0 -1 20 -119q8 -47 11 -73
q3 -16 4 -25v-10v-5q0 -5 -3 -9q-7 -12 -20 -10q-4 1 -9 3q-3 1 -7 5q-7 5 -17 15l-46 47q-58 62 -80 88q-45 56 -85 124q-41 70 -66 121l-82 176q2 -142 0 -317t-2 -232q0 -8 -6 -14t-14 -6t-14 6t-6 14q0 67 2 203.5t1.5 243.5t-5.5 204q-1 8 4.5 14t14.5 7q7 1 12 -3
t9 -12z" />
    <glyph glyph-name="O" unicode="O" 
d="M245 658q-40 -6 -44 -8q-59 -22 -98 -121q-41 -97 -43 -215q-2 -121 40 -200q46 -83 133 -85q76 -2 121 80.5t48 206.5q2 124 -38 220q-43 99 -113 120q-2 0 -6 2zM259 694h4q88 -25 138 -143q43 -104 41 -236q-3 -133 -52 -223q-58 -106 -159 -103q-109 3 -166 107
q-47 86 -45 219q2 125 45 229q48 114 120 144q9 2 20 4.5t23 4t13 1.5q9 2 18 -4z" />
    <glyph glyph-name="P" unicode="P" horiz-adv-x="500" 
d="M88 345q110 3 177 35q36 18 71.5 51t54.5 71q43 86 -28 143q-62 49 -153 0q-37 -20 -69.5 -51t-52.5 -65q1 -77 0 -184zM48 538q-2 67 -5 127q-1 8 4.5 14t14 7t14.5 -5t7 -14l3 -72q57 60 104 85q33 18 65 25t67.5 1t65.5 -31q34 -26 47.5 -60t10.5 -66.5t-20 -64.5
q-22 -45 -62 -83t-82 -57q-77 -36 -194 -39q-3 -257 -3 -291q0 -8 -6 -14t-14 -6t-14 6t-6 14q0 55 2.5 234.5t0.5 279.5q-2 4 0 10z" />
    <glyph glyph-name="Q" unicode="Q" horiz-adv-x="568" 
d="M311 52q-59 57 -104 126q-4 6 -2.5 14t8.5 12.5t15 3t13 -8.5q43 -65 98 -118l10 9q45 62 60 160q15 99 -12 208q-28 113 -94 167q-10 7 -21 13.5t-16.5 9t-24 9.5t-25.5 8q-21 -3 -30 -8q-60 -32 -99 -129.5t-40 -210.5q-1 -119 42 -199t124 -90q48 -6 98 24zM342 26
q-62 -47 -135 -38q-53 7 -93 37t-62.5 77.5t-33.5 101.5t-11 113q1 121 44 229t117 147q9 5 25 9q12 11 28 5q17 5 26 -9q54 -20 82 -43q39 -32 67.5 -84.5t40.5 -107.5t16.5 -114.5t-4.5 -104.5q-16 -107 -68 -176l-10 -14q63 -47 129 -69q7 -3 10.5 -10.5t1 -15t-10 -11
t-15.5 -1.5q-75 26 -144 79z" />
    <glyph glyph-name="R" unicode="R" horiz-adv-x="577" 
d="M88 329q99 29 179 81q107 70 117 140q8 54 -47 84q-54 28 -113 15q-57 -14 -137 -79q2 -99 1 -241zM137 302q-25 -8 -49 -14q-3 -226 -3 -274q0 -8 -6 -14t-14 -6t-14 6t-6 14q0 67 2 203.5t1.5 243.5t-5.5 204q-1 8 4.5 14t14 7t14.5 -5t7 -14q1 -13 1 -48q76 56 131 68
q32 8 70 3q40 -5 71 -21q35 -19 54 -50.5t14 -74.5q-13 -87 -135 -168q-43 -28 -109 -57l114 -98l122 -106l100 -89q6 -6 6.5 -14.5t-5 -14.5t-13.5 -7t-15 5l-106 94l-132 118z" />
    <glyph glyph-name="S" unicode="S" horiz-adv-x="471" 
d="M360 533q-10 70 -52 99.5t-97 23.5q-51 -6 -84 -37q-33 -30 -26 -67q6 -27 58 -65l57 -39q40 -27 62 -44q20 -14 35.5 -27.5t32.5 -31.5t29 -36t22 -39.5t15 -44.5t4 -50t-8 -56q-11 -45 -44 -75.5t-78 -43.5q-41 -14 -88 -8t-83 31q-90 65 -90 222q0 8 6 14t14 6t14 -6
t6 -14q0 -137 74 -190q26 -20 64 -24q36 -4 71 6q36 11 61 35q26 24 35 57q19 76 -13 133.5t-103 109.5q-22 17 -62.5 44t-55.5 39q-66 48 -73 89q-12 58 37 104q42 40 107 47q43 6 82 -7.5t70 -51.5q32 -38 41 -98q1 -7 -4 -14t-13 -8t-15 4t-8 13z" />
    <glyph glyph-name="T" unicode="T" horiz-adv-x="473" 
d="M-3 671q41 0 82 1.5t90.5 5t77.5 6.5l90 8q63 6 81 8q9 1 15 -4.5t7 -14t-4.5 -14.5t-13.5 -7q-190 -18 -202 -18q4 -102 4.5 -205t-1.5 -233.5t-2 -195.5q0 -8 -6 -14t-14 -6t-14 6t-6 14q0 66 2 194.5t1.5 231t-4.5 205.5q-106 -8 -183 -8q-8 0 -14 6t-6 14t6 14t14 6z
" />
    <glyph glyph-name="U" unicode="U" horiz-adv-x="479" 
d="M77 667q-1 -91 -3 -170t8 -169q10 -89 34 -163q19 -56 42 -91q32 -46 69 -40q47 7 81 80q32 67 51 182q21 129 27 356q0 8 6 13.5t14.5 5.5t14 -6t5.5 -15q-6 -227 -28 -360q-20 -123 -53 -194q-45 -92 -113 -102q-60 -8 -107 58q-27 39 -48 101q-24 76 -34.5 170
t-8.5 175t3 171q0 8 6 13.5t14.5 5.5t14 -6t5.5 -15z" />
    <glyph glyph-name="V" unicode="V" horiz-adv-x="500" 
d="M47 661q55 -242 130 -489q1 -3 3 -12t6 -23.5t17 -65.5q22 94 45 169q78 251 184 449q3 7 11 9t15.5 -1.5t10 -11.5t-2.5 -15q-101 -192 -179 -442q-33 -108 -48 -178v-4l1 -5v-9q1 -27 -18 -36q-17 -9 -31 8q-6 6 -12 18q-7 18 -17 51q-7 22 -15 54t-9 34
q-75 249 -130 490q-2 8 2.5 15t12.5 9t15 -2t9 -12z" />
    <glyph glyph-name="W" unicode="W" horiz-adv-x="753" 
d="M31 642q43 -134 108 -445l21 -105q54 172 117 316l26 58q12 23 20 36q5 9 9 13q5 5 10 7q11 5 21 -2l5 -4q0 -2 1 -3l1 -1l3 -6l4 -11l13 -39l39 -120q60 -185 64 -196q2 -5 22 -62l15 -37l23 124l15 79l14 74q5 27 7 36q8 36 20.5 79.5t20.5 69.5l28 83l23 72
q3 8 10 11.5t15 1.5t12 -9.5t2 -15.5q-7 -19 -25 -72l-26 -80l-20 -69q-13 -43 -21 -81q-2 -8 -7 -35l-14 -73l-14 -78q-14 -74 -23 -116q-5 -26 -9 -40q-6 -20 -9 -26q-6 -10 -16 -11q-11 -2 -20 6q-4 5 -8 13q-1 4 -4 12q-2 5 -2 6q-11 26 -25 63l-21 61q-6 14 -65 197
l-45 138q-21 -42 -32 -69q-66 -152 -107 -290q-2 -1 -4 -11l-6 -20q-3 -13 -6 -22l-9 -32l-3 -10q-1 -2 -2 -4.5l-1 -2.5q1 1 -1 -3q-1 -3 -5 -6q-13 -8 -25 2q-4 3 -6 7q-1 4 -2.5 8.5t-4.5 17.5l-10 58l-22 105q-64 306 -108 441q-2 8 1.5 15.5t11.5 9.5t15.5 -1.5
t10.5 -11.5z" />
    <glyph glyph-name="X" unicode="X" horiz-adv-x="526" 
d="M226 324l-179 -335q-4 -8 -12.5 -10t-15.5 1.5t-9.5 11.5t0.5 16q125 237 194 356q-90 162 -137 293q-3 8 0.5 15.5t11 10t15 -0.5t10.5 -11q42 -117 123 -266l80 131l28 46l38 61q16 24 34 45q5 6 13.5 7t15 -4.5t7 -14t-4.5 -14.5q-17 -20 -32 -43l-36 -57l-30 -48
l-91 -150l222 -376q4 -7 2 -15t-9.5 -12t-15.5 -2t-12 9l-103 176z" />
    <glyph glyph-name="Y" unicode="Y" horiz-adv-x="455" 
d="M53 703l5 -23l7 -36l7 -38q18 -80 34 -135q21 -76 45 -119q24 -45 46 -46q20 -1 50 41q27 40 58 118q39 101 71 230q2 8 9 12t15 2t12.5 -9t2.5 -15q-34 -134 -73 -234q-32 -81 -62 -126q-26 -39 -59 -55q0 -51 -3.5 -136t-4.5 -124q0 -9 -6 -14.5t-14 -5.5t-14 6t-6 14
q1 40 4 123.5t4 134.5q-39 15 -66 65q-25 46 -48 127q-16 56 -33 138q-4 15 -8 37t-7 35l-5 23q-2 8 2.5 15t12.5 9t15 -2t9 -12z" />
    <glyph glyph-name="Z" unicode="Z" horiz-adv-x="575" 
d="M112 684h68q68 1 116 1q70 0 110 -1q24 -1 38 -3q8 -1 13 -2q3 -1 6 -1q7 -3 10 -8q5 -6 4 -14q0 -3 -0.5 -6t-2.5 -6q-3 -5 -7 -14q-8 -11 -23 -34l-34 -50l-92 -133q87 -1 143 -10q8 -1 13 -8t3.5 -15t-8.5 -13t-15 -4q-68 12 -162 10q-55 -81 -98 -151l-102 -167
q31 3 45.5 5t22 3t9.5 1q198 21 342 2q8 -1 13 -8t4 -15t-8 -13t-15 -4q-139 19 -331 -2q-1 0 -11 -1t-25 -3t-27 -3q-25 -3 -39 -5q-8 -1 -13 -1h-6h-4q-2 1 -4 1q-8 4 -12 12q-7 18 10 36q6 5 12 8q0 -3 -3 -3l107 179l82 127q-64 -3 -120 -9q-8 -1 -14.5 4.5t-7 13.5
t4.5 14.5t13 7.5q85 8 153 11l107 155l33 50l17 22l-22 4q-40 1 -109 1q-48 0 -116 -1h-68q-8 0 -14 6t-6 14t6 14t14 6z" />
    <glyph glyph-name="bracketleft" unicode="[" horiz-adv-x="358" 
d="M219 724q-5 0 -45 -3q-33 -1 -54 -4q-29 -4 -47 -11q-11 -5 -17 -11q-2 -11 -2 -25q-1 -20 0 -54q1 -57 6 -156l7 -108l6 -105q3 -40 3 -56q0 -1 0.5 -18t1 -38t0.5 -39q1 -37 3 -58q0 -13 1 -20v-5q9 -10 26 -17q22 -6 57 -9q27 -2 65 -1q9 0 28 0.5t26 0.5q8 0 14 -6
t6 -14t-6 -14t-14 -6q-7 0 -25.5 -0.5t-27.5 -0.5q-41 -1 -69 1q-41 3 -67 12q-37 13 -49 38q-2 5 -4 17q-1 8 -1 21q-2 23 -3 59q0 19 -0.5 39.5t-1 37.5t-0.5 18q0 17 -3 58l-6 104l-7 107q-5 100 -6 156q-1 34 0 58q1 26 4 36q9 22 41 35q21 8 55 13q24 3 59 5q37 3 40 3
q9 1 15.5 -4.5t7.5 -13.5t-4.5 -14.5t-12.5 -7.5z" />
    <glyph glyph-name="backslash" unicode="\" horiz-adv-x="482" 
d="M393 -10l-93 167l-102 180l-88 164q-51 96 -90 178q-3 8 -0.5 16t10 11t15.5 0.5t11 -9.5q39 -82 90 -180l89 -163l100 -179l93 -165q4 -7 1.5 -15t-9.5 -12t-15 -1.5t-12 8.5z" />
    <glyph glyph-name="bracketright" unicode="]" horiz-adv-x="358" 
d="M99 -12q3 0 45 3q32 2 54 5q30 4 46 11q11 5 17 11q2 10 3 28q0 20 -1 54q-1 56 -8 154q-2 40 -7 105l-8 106q-3 39 -3 57q-1 41 -3 95q-2 38 -3 59q-1 12 -1 18v6q-11 11 -27 17q-21 6 -56 9q-28 1 -66 0q-10 0 -28.5 -1t-24.5 -1q-9 0 -15 5.5t-6 14t5.5 14.5t13.5 6
q7 0 25 1t28 1q41 1 69 -1q42 -2 68 -11q37 -12 50 -37q1 -4 2 -10q1 -3 1 -8q1 -7 2 -21q1 -21 3 -58q2 -55 3 -96q0 -18 3 -59l8 -104l7 -105q7 -92 8 -154q1 -44 1 -58q-1 -26 -5 -38q-8 -23 -40 -36q-21 -8 -56 -13q-22 -4 -57 -6q-39 -3 -41 -3q-9 -1 -15.5 4.5
t-7.5 13.5t4.5 14.5t12.5 7.5z" />
    <glyph glyph-name="asciicircum" unicode="^" horiz-adv-x="325" 
d="M-15 542l50 87q21 36 34 55q7 12 14 18q3 5 7 7q6 7 13 8q13 2 29 -7q10 -7 22 -18q20 -20 47 -54l27 -38l26 -36l14 -20q5 -7 4 -15t-7.5 -13t-15 -4t-13.5 8q-3 4 -13 20l-26 36l-28 37q-25 33 -43 49l-14 15l-11 -16q-12 -19 -32 -52l-49 -87q-4 -7 -12 -9t-15.5 2
t-9.5 12t2 15z" />
    <glyph glyph-name="underscore" unicode="_" horiz-adv-x="443" 
d="M18 -101q207 25 352 25q7 0 13.5 -6t6.5 -14t-6.5 -14t-13.5 -6q-142 0 -346 -25q-9 -1 -15.5 4t-7.5 13.5t4 15t13 7.5z" />
    <glyph glyph-name="grave" unicode="`" horiz-adv-x="191" 
d="M43 765q63 -95 92 -160q4 -7 1 -15t-10.5 -11t-15 -0.5t-10.5 10.5q-29 61 -90 153q-5 8 -3.5 16t8.5 12.5t15 3t13 -8.5z" />
    <glyph glyph-name="a" unicode="a" horiz-adv-x="415" 
d="M292 156q-14 54 -30 76q-48 63 -107 60q-51 -3 -91.5 -52t-39.5 -104q0 -57 48 -84q64 -36 139 21q38 29 81 83zM43 407q54 78 131 86q92 9 141 -83q31 -59 42 -157q5 -47 5 -158v-62q0 -12 -1 -19q0 -5 -1 -7q-1 -5 -4 -9q-5 -8 -16 -8q-8 -1 -15 7q-5 6 -8 19
q-2 9 -5 25l-10 64q-41 -44 -67 -64q-96 -73 -183 -23q-37 20 -54 52t-15 67t15 68.5t35 59.5q52 62 120 67q79 5 141 -76l27 -40q-15 126 -41 176q-36 68 -102 61q-58 -7 -101 -68q-6 -7 -14 -8.5t-14.5 3.5t-8 13t2.5 14z" />
    <glyph glyph-name="b" unicode="b" horiz-adv-x="423" 
d="M19 24v5v1v1v1v10v7v7v5q0 30 2 49l2 3v6q1 15 2 111q3 210 -13 413q-1 9 4.5 15t13.5 7t14.5 -4.5t7.5 -13.5q13 -159 13 -390q32 66 44 90q41 74 85 108q58 44 115 16q52 -27 60 -102q4 -48 -12 -110q-32 -126 -115 -197q-83 -72 -209 -75q-9 0 -15 5.5t-6 14t7 17.5z
M59 29q107 14 170 75.5t89 164.5q14 54 11 97q-5 53 -39 69q-33 18 -71 -12q-36 -27 -74 -95q-31 -56 -53 -117q-22 -62 -30 -102q0 -6 -1.5 -21t-1.5 -23v-5v-10v-21z" />
    <glyph glyph-name="c" unicode="c" horiz-adv-x="390" 
d="M242 376q-14 53 -38 70q-18 12 -42 2q-26 -11 -51.5 -42.5t-38.5 -71.5q-19 -62 -17.5 -117t17.5 -96.5t42 -64.5q40 -36 87 -16q60 23 113 120q4 6 12 8.5t15 -1.5t9.5 -12t-1.5 -15q-60 -109 -131.5 -137t-129.5 23q-52 45 -68.5 133t13.5 187q16 46 47 85.5t67 54.5
q44 18 80 -7q37 -25 54 -93q2 -9 -2 -15.5t-12.5 -8.5t-15.5 2t-9 12z" />
    <glyph glyph-name="d" unicode="d" horiz-adv-x="404" 
d="M309 56q-3 19 -6 34.5t-4 18.5q-24 138 -81 251q-20 38 -46 59q-29 22 -62 11q-50 -18 -61 -90q-12 -74 20 -157q35 -85 94 -122q64 -41 146 -5zM357 655q-17 -223 -7 -434l6 -128q0 -1 0.5 -7.5t1.5 -17t2 -18.5q1 -18 2 -27v-9v-6q-1 -3 -3 -7q-4 -7 -11 -9
q-9 -3 -18 3q-6 4 -13 21q-98 -39 -176 10q-70 46 -109 144q-36 92 -23 176q6 43 28 76t60 46q53 18 100 -17q33 -26 57 -73q19 -37 54 -127q-5 226 9 406q0 9 6.5 14.5t15 4.5t13.5 -7t5 -14z" />
    <glyph glyph-name="e" unicode="e" horiz-adv-x="389" 
d="M50 178q76 14 127.5 58.5t75.5 106.5q14 39 5 71q-7 33 -41 33q-32 0 -66 -33t-60 -88q-35 -70 -41 -148zM54 138q21 -58 51.5 -81t67.5 -23q38 0 75 24q36 24 59 69q4 9 11.5 11t15 -1.5t10 -11t-0.5 -15.5q-28 -55 -74 -86t-97 -30q-53 1 -95.5 36t-61.5 99
q-10 44 0.5 101.5t39.5 114.5q29 60 72 102q41 39 90 40q33 1 53 -16.5t27 -45.5q12 -45 -7 -94q-27 -75 -87.5 -126.5t-148.5 -66.5z" />
    <glyph glyph-name="f" unicode="f" horiz-adv-x="400" 
d="M344 570q-6 41 -30.5 71.5t-53.5 38.5q-27 8 -47 -7q-26 -19 -35 -70q-10 -59 -5 -170q59 0 125 -2q9 0 14.5 -6.5t5.5 -14.5t-6.5 -13.5t-14.5 -5.5q-63 2 -120 2q0 -25 1 -38q2 -33 4.5 -106.5t5 -130t7.5 -108.5q0 -9 -5 -15t-13.5 -7t-15 4.5t-6.5 13.5
q-5 53 -7.5 108.5t-5 130t-4.5 110.5q-1 12 -3 37q-66 -2 -118 -8q-8 -1 -14.5 4t-7.5 13.5t4 15t14 7.5q52 6 120 8q-6 114 6 179t50 94q36 27 82 13q41 -12 73 -51t41 -91q1 -8 -4 -15t-13.5 -8t-15 4t-8.5 13z" />
    <glyph glyph-name="g" unicode="g" horiz-adv-x="382" 
d="M302 434h-8l-3 4q-7 6 -10 8q-35 15 -81 -18q-47 -33 -87 -101q-40 -66 -53 -131q-14 -66 7 -99q20 -30 54 -24q48 7 87 68q26 39 54 116q24 69 32 116q3 18 5 44zM304 256q-40 -102 -62 -138q-50 -75 -116 -85q-27 -4 -52 7.5t-40 34.5q-31 47 -14 129q15 71 58 144
q45 75 98 113q65 46 120 21q12 -4 22 -16l9 -9h4q5 -2 8 -9q1 -1 2 -5q1 -2 1 -3.5v-4.5v-18q1 -10 1 -52q1 -102 1 -114q2 -107 -9 -191q-17 -137 -70 -182q-26 -22 -54 -31.5t-53.5 -8.5t-55.5 3q-8 1 -13 7.5t-4.5 15t7 13.5t14.5 4q41 -6 73 -1t59 28q42 36 58 158
q8 60 8 190z" />
    <glyph glyph-name="h" unicode="h" horiz-adv-x="417" 
d="M68 248q34 68 52 97q34 54 67 84q42 39 81 35q52 -4 75 -74q17 -50 19 -136q3 -105 -15 -243q-1 -8 -7.5 -13t-15 -4t-13.5 7.5t-4 15.5q17 135 15 235q-2 80 -17 125q-15 44 -41 47q-20 3 -50 -26q-29 -25 -60 -75q-27 -42 -47.5 -87.5t-27.5 -70.5q-6 -29 -10 -121v-2
q0 -3 1 -7.5t2 -8.5q1 -11 -1 -18q-2 -11 -13 -15q-9 -4 -18 1q-7 3 -10 8l-2 5v5q-1 2 -1 4v16v45q1 87 1 96q-1 102 -10 297l-11 217q0 8 5.5 14t13.5 6.5t14 -5t7 -14.5q2 -57 9 -192.5t12 -247.5z" />
    <glyph glyph-name="i" unicode="i" horiz-adv-x="137" 
d="M60 433q-6 -51 -7 -104t3.5 -109t10.5 -100.5t16 -110.5q1 -8 -4 -15t-13 -8t-15 4t-8 13q-10 66 -15.5 110.5t-10.5 102.5t-4 113t7 110q1 8 7.5 13t15 4t13.5 -7.5t4 -15.5zM67 574q0 -8 -6 -14t-14 -6t-14 6t-6 14t6 14t14 6t14 -6t6 -14z" />
    <glyph glyph-name="j" unicode="j" horiz-adv-x="154" 
d="M96 465q17 -136 9 -308q-4 -99 -19 -168q-17 -84 -50 -123q-27 -31 -58 -41.5t-74 -9.5q-8 0 -13.5 6t-5.5 14.5t6 14t15 5.5q36 -1 58 6t42 31q25 31 41 105q14 68 19 163q7 163 -10 299q-1 9 4 15.5t13.5 7.5t15 -4t7.5 -13zM92 618q0 -8 -6 -14t-14 -6t-14 6t-6 14
t6 14t14 6t14 -6t6 -14z" />
    <glyph glyph-name="k" unicode="k" horiz-adv-x="443" 
d="M294 459q-14 -22 -122 -145l-69 -79l-23 -27l-3 -8q8 -17 28 -35q32 -25 91 -55q50 -24 102 -44t76 -25q8 -1 12 -8t2.5 -15.5t-8.5 -12.5t-16 -2q-25 6 -79.5 26t-105.5 45q-63 31 -99 59l-17 18q-3 -79 -8 -138q-1 -8 -7.5 -13.5t-14.5 -4.5t-13.5 7t-4.5 15
q9 98 11 198t0 256t-2 199q0 8 6 14t14 6t14 -6t6 -14q0 -52 1.5 -185t-0.5 -233l77 88q108 124 117 141q5 6 13 8t15 -2t9 -12.5t-2 -15.5z" />
    <glyph glyph-name="l" unicode="l" horiz-adv-x="155" 
d="M84 673q-19 -102 -26.5 -217t3.5 -239.5t46 -208.5q2 -7 -1 -14.5t-10.5 -10.5t-15 0t-11.5 11q-35 87 -47 218t-4 248t28 221q1 8 7.5 12.5t15 3t13 -8t2.5 -15.5z" />
    <glyph glyph-name="m" unicode="m" horiz-adv-x="622" 
d="M236 108q-1 100 -9 167q-9 68 -26 100q-9 14 -18 20q-7 3 -16 -1q-13 -4 -31 -35q-16 -31 -34 -80q-35 -94 -40 -148q-3 -25 1 -80q1 -23 1 -31t-1 -13q-5 -11 -15 -13q-12 -4 -21 5q-5 5 -5 6q0 3 -1 5v0v1v1v4q0 6 -1 15l-2 46l-5 145q-8 232 -8 240t6 14t14 6t14 -6
t6 -14q0 -19 7 -202q33 89 50 118q25 44 50 54q27 10 50 -2q20 -10 34 -37q19 -36 34 -143q38 84 63 126q36 56 69 84q46 39 88 23q43 -16 60 -87q14 -50 17 -137q2 -42 -1 -145q-2 -81 0 -102q1 -8 -4.5 -14t-14 -7t-14.5 4.5t-7 14.5q-2 23 0 106q2 104 1 141
q-2 82 -15.5 130.5t-36.5 57.5q-19 7 -47 -15q-29 -24 -61 -76q-25 -41 -46 -89q-21 -46 -30 -74q-11 -37 -16 -86v-19v-13v-5l-1 -5q-2 -3 -5 -6q-9 -9 -21 -5q-7 3 -10 9q-2 2 -2 3q0 2 -1 4v1v1v1v9q-1 18 0 24q0 2 1 4z" />
    <glyph glyph-name="n" unicode="n" horiz-adv-x="427" 
d="M19 50q1 68 0 98q-1 31 -1.5 100.5t-3 120t-9.5 97.5q-1 8 3.5 15t13 8t15.5 -4t8 -13q10 -75 12 -248q44 91 80 143q32 46 70 73q28 19 54 22q34 4 57 -23q21 -23 34 -84q10 -46 15 -121q6 -83 6 -216q0 -8 -6 -14t-14 -6t-14 6t-6 14q0 136 -5 214q-5 70 -14 115
q-11 51 -25 66q-11 10 -24 9q-15 -1 -34 -15q-33 -23 -61 -62q-102 -149 -111 -298q0 -28 -1 -38v-4v-1v-1q0 -1 -2 -3q-1 -6 -4 -9q-7 -6 -15 -5t-14 7q-4 3 -4 6q0 2 -0.5 3.5l-0.5 1.5v13q0 16 1 33z" />
    <glyph glyph-name="o" unicode="o" horiz-adv-x="374" 
d="M173 442q-8 -1 -12 -1q-2 0 -6 -0.5t-6 -0.5q-10 -1 -14 -4q-35 -18 -62 -81q-28 -65 -32 -137q-4 -79 23 -129t83 -54q71 -5 111 50q37 53 36 136q-1 73 -32.5 134.5t-88.5 86.5zM123 472q5 14 11.5 17.5t13.5 2.5q59 -11 102 -54.5t63 -98.5q20 -57 21 -117
q2 -97 -44 -160q-53 -74 -145 -67q-43 4 -72.5 24.5t-45 53.5t-22 70t-4.5 76q5 81 35 152q34 76 81 101q-1 0 6 0z" />
    <glyph glyph-name="p" unicode="p" horiz-adv-x="396" 
d="M71 273q-4 -140 -4 -233q53 -4 83 1.5t57 24.5q35 25 60 75t33 109q8 60 -5.5 109.5t-49.5 75.5q-25 19 -51 11t-52 -39q-23 -27 -41.5 -64t-26.5 -64zM68 0q1 -85 5 -152q1 -8 -5 -14t-14 -7t-14 5t-7 14q-4 72 -5 159.5t0.5 151t4.5 164.5t4 154q0 8 6 13.5t14.5 5.5
t14 -6t5.5 -15q-1 -26 -1 -86l36 46q34 39 69 50q46 15 88 -16q46 -34 63 -94.5t8 -128.5q-9 -64 -38 -121.5t-71 -88.5q-58 -42 -163 -34z" />
    <glyph glyph-name="q" unicode="q" horiz-adv-x="372" 
d="M286 405l6 66q0 9 6.5 14.5t15 4.5t13.5 -7t5 -14q-14 -202 -19 -304q1 -7 0 -14q-7 -166 0 -299q0 -8 -5.5 -14t-14 -7t-14.5 5t-6 14q-5 93 -3 225q-52 -53 -90 -66t-74 -2q-57 17 -83.5 82t-11.5 157q12 74 48 137t81 87q56 30 103 -10q15 -12 43 -55zM276 307
q-21 93 -58 123q-26 22 -59 5q-36 -20 -67 -74t-41 -121q-14 -84 6 -132q22 -51 60 -64q36 -10 79.5 17t76.5 100q3 62 7 138q-3 5 -4 8z" />
    <glyph glyph-name="r" unicode="r" horiz-adv-x="337" 
d="M52 439q5 -52 6 -130v-87q82 193 194 266q7 4 15 2.5t12.5 -8.5t3 -15t-9.5 -13q-80 -52 -131 -144.5t-72 -204.5q-1 -11 -1 -39q0 -33 -5 -50l-2 -4q-1 -3 -1 -4q-3 -5 -8 -7q-13 -7 -23 3q-4 4 -6 8v6q-1 4 -1 14q1 26 1 28q-5 110 -5 119q0 14 -1 129q-1 78 -6 127
q-1 9 4.5 15t13.5 7t14.5 -4.5t7.5 -13.5z" />
    <glyph glyph-name="s" unicode="s" horiz-adv-x="323" 
d="M217 355q0 1 -7 36q-3 17 -8 27q-11 18 -33.5 25.5t-48.5 2.5q-25 -6 -39 -22.5t-12 -39t35 -57.5q13 -14 41 -40q28 -25 34 -31q15 -14 25.5 -26t24 -27.5t21 -31.5t13.5 -33.5t5.5 -36.5t-6.5 -39q-15 -52 -59.5 -70t-92.5 -3q-48 14 -81.5 56t-33.5 101q0 8 6 14t14 6
t14 -6t6 -14q0 -45 25 -77t61 -43q36 -10 64.5 2.5t38.5 45.5q12 38 -7.5 74t-64.5 80q-5 4 -35 31l-42 40q-41 44 -46 81q-5 41 20 68.5t62 35.5q36 9 72 -4q35 -10 53 -44q9 -14 13 -36q0 -1 2 -13.5t4 -19.5q2 -8 -2 -15t-12 -9t-15 2t-9 10z" />
    <glyph glyph-name="t" unicode="t" horiz-adv-x="337" 
d="M108 465q-56 -2 -115 -5q-8 -1 -14 5t-6.5 14t5 14t14.5 7q63 3 120 7q8 92 23 167q1 8 7.5 12.5t15 3t13 -8t2.5 -15.5q-12 -69 -21 -158q73 5 128 10q8 1 14.5 -4.5t7 -14t-4.5 -14.5t-13 -7q-61 -5 -136 -10q-19 -304 47 -467q3 -7 0 -14.5t-10.5 -10.5t-15.5 0
t-11 11q-69 169 -50 478z" />
    <glyph glyph-name="u" unicode="u" horiz-adv-x="417" 
d="M70 467q-19 -131 -11 -253q6 -83 26 -131q21 -50 58 -54q24 -3 46 29q23 32 41 94q24 87 34 199q2 16 3.5 42l1.5 26q2 16 3 22.5t2 10.5q0 2 2 4q6 10 15 11q10 1 18 -7q2 -2 3 -4t1 -3t1 -3v1v-2q0 -3 1 -7q0 -9 2 -23l8 -106q11 -149 45 -293q2 -8 -2 -15t-12 -9
t-15 2t-9 12q-21 88 -41 229q-17 -77 -23 -97q-19 -70 -45 -107q-37 -51 -86 -46q-58 7 -89 79q-22 53 -29 144q-9 126 11 261q1 8 8 13t15 4t13 -8t4 -15z" />
    <glyph glyph-name="v" unicode="v" horiz-adv-x="428" 
d="M19 474q52 -103 123 -308l29 -87l12 -33l12 29q14 32 56 146q87 231 100 257q4 8 12 10t15.5 -1.5t10 -11.5t-1.5 -16q-13 -24 -99 -252l-56 -147q-13 -32 -22 -49q-4 -10 -8 -15q-7 -11 -16 -15t-18 2q-2 2 -5 6q-2 1 -3 2q0 3 -2 7l-6 17l-18 51l-29 86
q-71 203 -123 303q-3 8 -0.5 16t9.5 11.5t15.5 1.5t12.5 -10z" />
    <glyph glyph-name="w" unicode="w" horiz-adv-x="657" 
d="M38 458q13 -51 39 -165t42 -174l10 -40l30 107q22 77 37 114q9 26 18 39q8 10 14 15q12 8 25 4q8 -2 15 -11q5 -6 10 -14q7 -14 18 -40l45 -112q32 -81 45 -110l17 -35l15 58q57 179 149 384q3 8 10.5 10.5t15 -0.5t10.5 -11t-1 -15q-90 -202 -145 -380q-4 -10 -8 -30
q-5 -20 -7 -27q-6 -16 -11 -25q-13 -18 -32 -12q-8 2 -16 11q-6 5 -11 14q-10 14 -22 40q-16 37 -46 114q-33 85 -44 111l-15 34l-13 -26q-14 -36 -35 -110l-14 -53q-12 -43 -18 -61q-8 -27 -13 -39q-3 -9 -6.5 -13.5t-7.5 -7.5q-8 -6 -18 -4q-6 1 -10 6q-2 1 -4 4q0 1 0 -1
q0 2 -0.5 4.5t-1.5 4.5q-1 1 -2 7l-7 27l-15 59q-16 59 -42 173t-39 166q-2 9 2 15.5t12.5 8.5t15.5 -2t9 -12z" />
    <glyph glyph-name="x" unicode="x" horiz-adv-x="360" 
d="M146 195l-118 -199q-4 -7 -12 -9t-15.5 2t-9.5 12t2 15l131 219q-69 123 -110 221q-3 8 0 15.5t10.5 10.5t15.5 0t11 -10q35 -84 97 -197l119 199q5 7 13 9t15 -2t9 -12t-2 -15l-132 -220l135 -229q4 -7 2 -15t-9.5 -12t-15.5 -2t-12 9z" />
    <glyph glyph-name="y" unicode="y" horiz-adv-x="400" 
d="M362 471q-33 -146 -114 -342q-95 -234 -173 -305q-6 -6 -14 -5t-13.5 7t-5 14t6.5 14q48 44 112 176q-31 79 -81 222.5t-73 204.5q-3 9 0.5 16.5t11 10t15 -0.5t10.5 -10q24 -63 66.5 -186.5t74.5 -207.5l27 64q79 195 111 338q1 8 8 12t15.5 2.5t13 -8.5t2.5 -16z" />
    <glyph glyph-name="z" unicode="z" horiz-adv-x="395" 
d="M47 476q47 -1 71 -1h4h3h2h1h1h4q12 -1 50 -2h12q10 0 24 -0.5t27 -0.5q25 -1 38 -2q10 -1 15 -2t8 -2q7 -2 11 -8q5 -6 4 -14v-5l-3 -6t-6 -9q-6 -12 -20 -31l-65 -92l-17 -24q38 -4 56 -8q8 -1 12.5 -8t3 -15t-8.5 -12.5t-15 -2.5q-33 6 -76 7q-63 -88 -77 -109
q-1 -1 -8.5 -11t-17.5 -25t-19 -27l-21 -30q52 0 114 2q161 6 170 6q8 0 13.5 -6.5t5.5 -14.5t-6.5 -13.5t-14.5 -5.5q-7 0 -166 -6q-65 -2 -99 -2q-22 -1 -33 0q-8 0 -12 1l-6 2q-8 1 -11 5q-7 9 -4 21l2 8q3 6 9 16q8 14 26 39l19 26l17 25q8 11 9 13l59 84q-34 -3 -57 -6
q-8 -1 -14.5 4t-7.5 13.5t4 15t14 7.5q58 6 91 7l33 47l73 104q-21 4 -24 4q-13 0 -27 0.5t-24 0.5h-12q-41 1 -53 2h-5h-1h-1h-3q-25 0 -71 1q-9 0 -14.5 6t-5.5 14.5t6 14t14 5.5z" />
    <glyph glyph-name="braceleft" unicode="{" horiz-adv-x="400" 
d="M316 686q-57 23 -109.5 -3.5t-60.5 -88.5q-3 -18 4 -68q7 -54 -1 -82q-19 -65 -95 -108q57 -33 70 -72q9 -28 9 -74q0 -48 3 -65q14 -80 63 -104q45 -22 130 -6q8 2 15 -2.5t8.5 -12.5t-3 -15t-12.5 -8q-99 -21 -156 8q-67 34 -85 134q-3 20 -3 71q0 41 -8 62
q-7 26 -40 43l-16 8l-10 4q-8 4 -12 7q-9 7 -13 15q-7 16 10 28q4 3 13 7q25 11 33 15q46 26 60 75q6 21 1 65q-9 57 -5 81q6 41 29 72.5t54 46t69 17.5t73 -12q8 -4 11 -11t0 -15t-10.5 -11t-15.5 -1z" />
    <glyph glyph-name="bar" unicode="|" horiz-adv-x="590" 
d="M291 323q24 76 45 114q28 49 66 73.5t87 6.5q30 -11 47 -41q36 -62 -18 -182q-34 -74 -90 -153l-11 -16l-21 -33q-12 -20 -22 -31q-6 -8 -11 -11q-11 -11 -22 -9q-5 1 -14 6q-3 1 -8 6q-8 6 -21 16l-32 30l-27 24q-20 16 -34 30l-37 35q-21 21 -37 39q-92 104 -69 179
q11 30 46 41q68 22 132 -52q20 -22 51 -72z" />
    <glyph glyph-name="braceright" unicode="}" horiz-adv-x="393" 
d="M21 30q57 -23 109 5t60 88q3 19 -5 70q-7 52 0 81q16 57 75 97l19 11q-57 33 -70 72q-9 28 -10 75t-3 63q-16 80 -65 104q-45 23 -130 5q-8 -2 -15 2.5t-8.5 12.5t3 15t12.5 8q98 21 156 -7q67 -33 86 -132q3 -18 4 -72q1 -41 9 -62q8 -26 40 -42q6 -3 15 -6.5t9 -4.5
q22 -10 27 -23q4 -10 -3 -19q-2 -3 -5 -5q-2 -2 -6 -4q0 -1 -10 -5q-19 -9 -32 -19q-47 -33 -59 -74q-6 -20 0 -65q9 -57 6 -81q-5 -41 -28 -72t-54 -46.5t-69 -19t-73 11.5q-8 4 -11 11t0 15t10.5 11t15.5 1z" />
    <glyph glyph-name="asciitilde" unicode="~" horiz-adv-x="435" 
d="M-13 520q34 58 64 82q25 21 51 24q32 3 61 -24q9 -7 33 -42q19 -27 27 -32q29 -18 65 0q32 17 59 52q4 8 12 9t15 -4t8.5 -12.5t-4.5 -14.5q-30 -44 -71 -65q-57 -29 -105 1q-15 9 -39 43q-21 30 -27 36q-16 14 -31 13q-14 -1 -29 -14q-23 -20 -54 -72q-4 -7 -12.5 -9
t-15.5 2t-9 12t2 15z" />
    <glyph glyph-name="exclamdown" unicode="&#xa1;" horiz-adv-x="145" 
d="M73 573q-1 -23 -4 -127t-3 -146.5t5.5 -118.5t17.5 -137q2 -8 -2.5 -15t-12.5 -8.5t-15 3t-8 12.5q-14 61 -19.5 140t-5.5 123t3.5 149.5t3.5 126.5q0 8 6 13.5t14.5 5.5t14 -6t5.5 -15zM74 666q0 -8 -6 -14t-14 -6t-14 6t-6 14t6 14t14 6t14 -6t6 -14z" />
    <glyph glyph-name="cent" unicode="&#xa2;" horiz-adv-x="352" 
d="M209 298q2 57 -14 91.5t-37 41.5q-12 4 -26 -0.5t-34 -28t-36 -62.5q-21 -51 -23 -100.5t10 -83.5t35 -54q33 -30 78 -16q55 17 109 97q5 7 13.5 8.5t15 -3t8 -13t-2.5 -14.5q-62 -91 -129.5 -112.5t-118.5 23.5q-47 41 -57 119t24 163q27 66 66 97.5t81 17.5
q38 -13 59 -60t19 -113q0 -8 -6.5 -13.5t-14.5 -5.5t-13.5 6.5t-5.5 14.5zM175 -31q0 -8 -6 -14t-14 -6t-14 6t-6 14t6 14t14 6t14 -6t6 -14zM161 533q0 -8 -6 -14t-14 -6t-14 6t-6 14t6 14t14 6t14 -6t6 -14z" />
    <glyph glyph-name="sterling" unicode="&#xa3;" horiz-adv-x="519" 
d="M-28 350q54 46 133 36l8 30q3 14 11 48l13 55q5 20 16 50q11 28 23 49q20 34 52 57.5t66 28.5q39 6 68 -16q30 -24 40 -73q2 -8 -2.5 -15t-12.5 -8.5t-15 2.5t-8 13q-8 35 -27 49q-16 12 -38 8q-23 -2 -47.5 -20.5t-40.5 -45.5q-11 -20 -20.5 -45.5t-14.5 -44.5t-12 -52
t-12 -49l-7 -30q42 -12 57.5 -15t39.5 -2.5t44 9.5q8 2 16 -1t11 -10.5t0 -15.5t-10 -11q-26 -11 -58.5 -11.5t-49.5 3.5t-61 15q-30 -121 -48 -185l-20 -70q31 19 40 23q47 20 87 2q13 -6 29 -17q19 -15 24 -17q71 -43 108 -26q29 14 73 92q4 7 12 9t15.5 -2t9.5 -12
t-2 -15q-17 -29 -28 -46t-28 -35t-35 -27q-56 -27 -147 27q-6 4 -25 19q-14 9 -22 14q-24 11 -55 -3q-23 -9 -56 -37q-3 -2 -4 -4.5t-2.5 -5.5t-2.5 -4q-7 -10 -11 -13q-10 -8 -22 -4q-10 4 -13 14l-1 12q0 1 2 6q0 6 3 15q3 12 12 44l20 71l50 184q-62 4 -100 -27
q-6 -6 -14 -5t-13.5 7t-5 14.5t7.5 13.5z" />
    <glyph glyph-name="currency" unicode="&#xa4;" horiz-adv-x="513" 
d="M116 417q-42 36 -75 72q-5 6 -4.5 14t6 13.5t14 5t13.5 -6.5q31 -32 71 -67q35 30 76 38q8 9 17 8q47 -3 90 -24l70 74q6 6 14.5 6t14.5 -5.5t6 -14t-6 -14.5l-67 -70q49 -54 44 -124q-4 -42 -31 -86l84 -87q6 -6 6 -14.5t-6 -14t-14.5 -5.5t-14.5 6l-82 85
q-51 -44 -111.5 -46t-106.5 40q-32 -34 -87 -80q-6 -6 -14 -5t-13.5 7t-5 14.5t7.5 13.5q59 50 88 84q-17 41 -15 84q2 49 31 99zM235 448q-48 -4 -78.5 -42.5t-32.5 -90.5q-1 -49 24 -82q28 -35 81 -33q54 2 90 39t41 87q4 46 -23 81.5t-90 44.5q-7 -3 -12 -4z" />
    <glyph glyph-name="yen" unicode="&#xa5;" horiz-adv-x="579" 
d="M318 395l-140 -11l16 -32q25 -45 46 -46t50 41q10 14 28 48zM96 703l5 -23l8 -36l7 -38q17 -80 33 -135q6 -22 15 -49q98 9 173 14l11 29q38 99 71 230q2 8 9 12t15 2t12.5 -9t2.5 -15q-33 -133 -77 -246q72 3 124 3q8 0 14 -6t6 -14t-6 -14t-14 -6q-65 0 -142 -4
q-21 -46 -40 -73q-24 -36 -90 -73q138 12 233 12q8 0 14 -6t6 -14t-6 -14t-14 -6q-99 0 -202 -10q-1 -28 -3.5 -97.5t-3.5 -106.5q0 -9 -6 -14.5t-14.5 -5.5t-14 6t-5.5 14q1 38 3.5 106.5t4.5 93.5q-90 -10 -166 -25q-8 -2 -15 2.5t-9 12.5t3 15t13 8q82 17 174 28v17
q-39 15 -66 65l-22 46l-135 -14q-8 -1 -15 4.5t-7.5 13.5t5 14.5t13.5 7.5l125 13l-13 42q-16 56 -33 138q-4 15 -7.5 37t-7.5 35l-5 23q-2 8 2.5 15t12.5 9t15 -2t9 -12z" />
    <glyph glyph-name="brokenbar" unicode="&#xa6;" horiz-adv-x="249" 
d="M195 661q0 -44 -3 -127t-3 -102q0 -8 -6 -13.5t-14.5 -5.5t-14 6t-5.5 15q0 18 3 100.5t3 126.5q0 8 6 14t14 6t14 -6t6 -14zM187 219q2 -36 2.5 -75t0 -97.5t-0.5 -75.5q0 -8 -6 -14t-14 -6t-14 6t-6 14q0 18 0.5 75t0 95t-2.5 76q-1 8 4.5 14t14 7t14.5 -5t7 -14z" />
    <glyph glyph-name="section" unicode="&#xa7;" horiz-adv-x="321" 
d="M131 419q-43 -10 -62 -29q-10 -10 -10 -21q0 -14 15 -32t58 -51l51 -40q10 10 10 13q22 35 1 78q-14 30 -63 82zM236 544q3 48 -17.5 78.5t-52.5 40.5t-59.5 -1t-39.5 -38q-16 -37 10 -81q17 -28 76 -90q60 -63 77 -97q30 -64 -3 -120q-3 -4 -16 -14q87 -87 63 -166
q-16 -52 -52.5 -71t-78.5 -7q-39 12 -68 45t-36 77q-2 8 3 15t13.5 8t15.5 -4t8 -13q4 -31 26 -56.5t50 -33.5q59 -17 80 52q19 60 -56 128q-17 16 -72 58q-46 36 -64 57q-24 30 -24 59q1 27 22 49q16 16 58 33q-39 43 -56 70q-37 62 -13 118q19 43 61.5 58.5t86.5 1.5
q45 -14 73.5 -55.5t24.5 -102.5q-1 -8 -7.5 -14t-14 -5t-13.5 7t-5 14z" />
    <glyph glyph-name="dieresis" unicode="&#xa8;" horiz-adv-x="215" 
d="M53 661q0 -8 -6 -14t-14 -6t-14 6t-6 14t6 14t14 6t14 -6t6 -14zM160 658q0 -8 -6 -14t-14 -6t-14 6t-6 14t6 14t14 6t14 -6t6 -14z" />
    <glyph glyph-name="copyright" unicode="&#xa9;" 
d="M245 658q-40 -6 -44 -8q-59 -22 -98 -121q-41 -97 -43 -215q-2 -121 40 -200q46 -83 133 -85q76 -2 121 80.5t48 206.5q2 124 -38 220q-43 99 -113 120q-2 0 -6 2zM259 694h4q88 -25 138 -143q43 -104 41 -236q-3 -133 -52 -223q-58 -106 -159 -103q-109 3 -166 107
q-47 86 -45 219q2 125 45 229q48 114 120 144q9 2 20 4.5t23 4t13 1.5q9 2 18 -4zM283 394q-9 56 -28 81q-13 16 -27 13q-16 -4 -34 -32t-25 -75q-13 -78 2 -136q7 -25 15.5 -41.5t17.5 -24.5t16.5 -11t15.5 -2q17 3 35.5 24.5t30.5 63.5q2 8 9 12t15 2t12 -9t2 -15
q-13 -49 -39.5 -81.5t-60.5 -36.5q-37 -4 -65 25.5t-42 83.5q-18 66 -4 152q9 54 33 93t57 47q38 9 67 -27q26 -33 37 -100q1 -8 -4 -15t-13 -8t-15 4t-8 13z" />
    <glyph glyph-name="ordfeminine" unicode="&#xaa;" horiz-adv-x="364" 
d="M255 494q-2 21 -7 87q-24 -14 -78 -42q-51 -27 -73 -57q-25 -35 -18 -61q7 -21 33 -28q31 -7 70.5 16.5t72.5 84.5zM51 648q67 48 129 58q70 10 91 -30q5 -8 8 -20t4 -19t2.5 -25.5t1.5 -19.5q10 -110 13 -131q3 -14 10 -39l12 -40q2 -8 -2 -15t-12 -9t-15 2t-9 12
q-2 6 -3.5 12.5t-4.5 15t-4 11.5l-5 24q-48 -56 -88 -72.5t-76 -7.5q-22 4 -38.5 18.5t-22.5 36.5q-14 44 23 96q28 38 87 69l22 10q18 9 24 12.5t17.5 11t20.5 15.5q1 1 8 4q-3 21 -7 29q-9 15 -51 9q-53 -7 -111 -50q-7 -5 -15 -4t-13 8t-4 15t8 13z" />
    <glyph glyph-name="guillemotleft" unicode="&#xab;" horiz-adv-x="472" 
d="M189 426q-15 -24 -88 -107l-50 -54l-14 -18q8 -15 18 -25q17 -18 49 -38q25 -16 61 -34l48 -24q8 -4 10 -12t-1.5 -15.5t-11.5 -9.5t-16 1l-47 24q-38 20 -64 35q-37 24 -58 46q-28 29 -29 58q0 5 1 9l1 1t2 3v0l3 3l4 6l15 16l48 54q72 82 86 102q4 7 12 8.5t15 -2.5
t8.5 -12.5t-2.5 -14.5zM383 402q-19 -21 -86 -87l-41 -40l-12 -6q13 -15 18 -20q18 -19 49 -42q59 -44 94 -62q9 -4 11 -11.5t-1.5 -15.5t-11 -10t-15.5 1q-40 20 -101 67q-33 25 -53 45q-28 27 -31 45q-1 6 2 13q1 1 2 3q1 0 2.5 2t3.5 5l14 14l42 41q69 68 84 84q6 6 14 7
t14 -5t7 -14t-5 -14z" />
    <glyph glyph-name="logicalnot" unicode="&#xac;" horiz-adv-x="442" 
d="M21 342q33 0 72 2.5t66 5t72 7.5q36 4 67 7l31 3l21 2l7 1h1h1h1h2h1l5 -2q7 -1 10 -9q8 -14 9 -38q1 -18 -2 -43q-2 -16 -6 -42t-4 -31q-1 -9 -7.5 -14t-15 -4t-13.5 7.5t-4 14.5q1 5 4.5 31t5.5 42q2 22 2 50l-15 -5l-30 -3q-24 -2 -68 -7q-47 -5 -74.5 -7.5t-66.5 -5
t-72 -2.5q-8 0 -14 6t-6 14t6 14t14 6z" />
    <glyph glyph-name="registered" unicode="&#xae;" 
d="M245 658q-40 -6 -44 -8q-59 -22 -98 -121q-41 -97 -43 -215q-2 -121 40 -200q46 -83 133 -85q76 -2 121 80.5t48 206.5q2 124 -38 220q-43 99 -113 120q-2 0 -6 2zM259 694h4q88 -25 138 -143q43 -104 41 -236q-3 -133 -52 -223q-58 -106 -159 -103q-109 3 -166 107
q-47 86 -45 219q2 125 45 229q48 114 120 144q9 2 20 4.5t23 4t13 1.5q9 2 18 -4zM188 449q0 -13 -4 -110q62 16 82.5 43t15 49t-29.5 28q-24 5 -64 -10zM226 309q44 -55 101 -97q7 -5 8 -13t-4 -15t-13 -8t-15 4q-61 45 -118 117q0 -63 3 -91q1 -9 -4.5 -15t-14 -7
t-14.5 4.5t-7 13.5q-5 56 -3 135q0 15 1 46.5t2 53.5q-6 5 -8 8q-4 7 -2.5 14.5t10.5 14.5q6 15 20 15q3 0 9 -1q49 19 85 10q23 -6 38.5 -22t20.5 -37q7 -36 -15 -70.5t-80 -59.5z" />
    <glyph glyph-name="macron" unicode="&#xaf;" horiz-adv-x="397" 
d="M16 677q162 0 303 20q8 1 15 -4t8 -13t-4.5 -15t-13.5 -8q-143 -20 -308 -20q-8 0 -14 6t-6 14t6 14t14 6z" />
    <glyph glyph-name="degree" unicode="&#xb0;" horiz-adv-x="312" 
d="M132 696q-24 -16 -27 -19q-7 -6 -25 -31q-18 -24 -34 -71t-18 -91q-2 -46 14 -70q17 -23 59 -20q45 4 77 44.5t41 97.5q7 56 -14.5 100t-72.5 60zM133 735q7 1 11 -1q45 -12 74 -46t37 -74q9 -40 3 -84q-9 -67 -50 -120q-40 -50 -103 -56q-65 -6 -96 38q-24 34 -21 94
q3 49 20.5 101.5t39.5 82.5q20 28 31 37q2 2 35 25q8 6 19 3z" />
    <glyph glyph-name="plusminus" unicode="&#xb1;" horiz-adv-x="416" 
d="M21 408q55 -2 128 4q-2 42 -5 102q0 8 5 14t13.5 6.5t14.5 -5t7 -14.5q2 -57 5 -99q44 5 108 15q8 1 15 -4t8 -13t-4 -15t-14 -8q-65 -10 -109 -15q5 -55 13 -95q2 -8 -2.5 -15t-12.5 -8.5t-15 3t-8 12.5q-9 42 -15 99q-75 -6 -134 -4q-8 1 -13.5 7t-5 14t6.5 13.5
t14 5.5zM43 180q21 2 91.5 9.5t116.5 10.5t91 3q8 0 14 -6t6 -14t-6 -14t-14 -6q-45 0 -91 -3t-113.5 -10.5t-90.5 -9.5q-9 -1 -15.5 4.5t-7 14t5 14.5t13.5 7z" />
    <glyph glyph-name="uni00B2" unicode="&#xb2;" horiz-adv-x="325" 
d="M58 613q15 21 45.5 43t60.5 34q40 14 66 5q36 -14 40 -63t-61 -134q-35 -46 -94 -108l-44 -45q39 0 57 1q23 1 51 2l42 3q16 1 18 1q8 1 14 -5t7 -14t-5 -14t-14 -7q-1 0 -18 -1l-44 -3l-48 -2q-49 -2 -71 -3h-25h-8q-3 1 -6 1q-5 1 -10 6q-6 6 -6 15q0 3 1 5q1 3 1.5 4
t2.5 3t2 3l-3 -3l4 3l8 9l23 25l41 44q60 61 92 104q55 73 53 108q0 9 -3 15.5t-8 11.5h-4q-11 5 -36 -5q-26 -9 -51.5 -28t-35.5 -33q-6 -7 -14 -8.5t-14.5 3.5t-8 13t2.5 14z" />
    <glyph glyph-name="uni00B3" unicode="&#xb3;" horiz-adv-x="329" 
d="M19 634q14 13 47.5 32.5t64.5 30.5q44 13 70 4q19 -5 27 -22q9 -17 7 -41q-3 -37 -56 -80q19 -6 21 -8q29 -13 51 -43t25 -61q5 -49 -22.5 -81.5t-73.5 -46.5q-40 -13 -85 -11t-77 18q-7 4 -9.5 12t1 15.5t12 9.5t15.5 -1q24 -13 60 -14.5t70 8.5q76 25 69 87
q-2 20 -17.5 41.5t-34.5 30.5q-23 11 -50 0l-11 -4q-7 -3 -13 -3q-9 0 -15 7q-6 6 -7 15q0 6 3.5 15t12.5 16q5 4 13 8l35 21q41 28 43 53q1 9 -1 20q-20 7 -48.5 -3t-58.5 -27t-42 -28q-6 -6 -14 -5t-13.5 7t-5 14t6.5 14z" />
    <glyph glyph-name="acute" unicode="&#xb4;" horiz-adv-x="188" 
d="M131 726q-69 -78 -84 -138q-2 -7 -9.5 -11t-15.5 -2t-12 9t-2 15q18 68 92 154q5 6 13.5 7t15 -4.5t7 -14t-4.5 -15.5z" />
    <glyph glyph-name="uni00B5" unicode="&#xb5;" horiz-adv-x="397" 
d="M282 123q19 -39 57 -88q6 -7 5 -15.5t-7.5 -13.5t-14.5 -4t-13 7q-28 35 -52 74q-28 -44 -53 -58q-35 -21 -72 -6q-27 11 -64 55q-13 -81 -25 -139q-1 -8 -8 -12.5t-15 -3t-12.5 8.5t-2.5 15q55 268 42 549q0 7 5.5 13t14 7t14.5 -5t6 -15q8 -168 -10 -340q11 -37 30 -62
t40 -33q20 -8 38 2q24 14 43 56q27 57 35 180q5 84 1 195q0 8 6 14.5t13.5 6.5t14 -5.5t6.5 -13.5q4 -110 -2 -198q-7 -99 -25 -163q4 -5 5 -8z" />
    <glyph glyph-name="paragraph" unicode="&#xb6;" horiz-adv-x="436" 
d="M232 661q-36 -12 -56 -26q-41 -27 -67 -70q-25 -42 -24 -88q1 -73 90 -142q17 -14 52 -35q7 231 5 361zM331 205q-29 11 -65 27q-3 -128 -3 -207q0 -8 -6 -14t-14 -6t-14 6t-6 14q0 86 4 229q-46 25 -76 49q-105 82 -106 174q-1 57 30 108q30 52 79 84q33 21 69 31
t75.5 4.5t74.5 -27.5q6 -3 8 -10.5t-3 -16.5q2 -117 -3.5 -328t-5.5 -298q0 -8 -6 -14t-14 -6t-14 6t-6 14q0 74 2 181zM338 651q-30 14 -66 15q2 -128 -5 -389l66 -30q7 285 5 404z" />
    <glyph glyph-name="periodcentered" unicode="&#xb7;" horiz-adv-x="116" 
d="M61 397q0 -8 -6 -14t-14 -6t-14 6t-6 14t6 14t14 6t14 -6t6 -14z" />
    <glyph glyph-name="cedilla" unicode="&#xb8;" horiz-adv-x="144" 
d="M89 49q-27 -87 -80 -151q-5 -6 -13.5 -7t-15 4.5t-7 14t4.5 14.5q48 57 72 137q3 8 10.5 11.5t15.5 1.5t11.5 -9.5t1.5 -15.5z" />
    <glyph glyph-name="uni00B9" unicode="&#xb9;" horiz-adv-x="237" 
d="M180 686q0 -19 -1 -178q-1 -108 4 -176q1 -8 -4.5 -14t-14 -7t-14.5 4.5t-7 14.5q-5 68 -4 178q1 159 1 176q0 9 5.5 15t14 6t14.5 -5.5t6 -13.5z" />
    <glyph glyph-name="ordmasculine" unicode="&#xba;" horiz-adv-x="369" 
d="M198 679q-41 -9 -68 -48q-30 -47 -37 -112t13 -113q20 -47 60 -53q42 -7 73 26t41 92q10 61 -9 115.5t-62 80.5q-4 3 -11 12zM221 706q7 -3 9 -4q56 -35 78 -101.5t11 -134.5q-5 -32 -17.5 -61t-31.5 -52t-47.5 -34t-61.5 -6q-63 9 -92 77q-25 57 -16 133q8 75 44 129
q41 63 103 67q13 1 21 -13z" />
    <glyph glyph-name="guillemotright" unicode="&#xbb;" horiz-adv-x="480" 
d="M48 483q50 -77 144 -163q2 -2 3.5 -3t5 -2.5t7.5 -5.5q20 -15 19 -34q0 -10 -7 -23q-6 -11 -16 -25q-17 -23 -44 -57q-50 -58 -83 -91q-6 -5 -14.5 -5t-14.5 6t-6 14.5t6 14.5q33 30 81 88q27 32 43 53l15 25q-19 13 -23 16q-97 90 -149 171q-5 6 -3.5 14t8.5 12.5t15 3
t13 -8.5zM205 494q113 -112 177 -159q3 -3 8 -5.5t11 -6.5q20 -11 25 -27q2 -9 -2 -18q-2 -6 -7 -11q-5 -8 -18 -20q-7 -7 -55 -49q-83 -73 -98 -106q-3 -8 -10.5 -10.5t-15.5 0.5t-10.5 11t0.5 15q19 41 108 119q49 43 53 48l16 11q-25 13 -30 17q-64 48 -180 163
q-6 6 -6 14t6 14t14 6t14 -6z" />
    <glyph glyph-name="onequarter" unicode="&#xbc;" horiz-adv-x="768" 
d="M610 147q0 21 0.5 92.5t-3.5 111.5l-74 -100q-42 -55 -60 -82l-14 -25q43 -3 92 -1q22 1 59 4zM145 681q4 -194 -8 -374q-1 -8 -7.5 -14t-14.5 -5t-13.5 7t-4.5 14q12 180 8 370q0 9 5.5 15t14 6t14.5 -5.5t6 -13.5zM648 403q2 -41 2 -254q37 3 42 3q9 1 15 -5t6.5 -14
t-5 -14t-13.5 -7q-6 0 -45 -3q2 -45 3 -77q0 -7 -5.5 -13t-14 -7t-14.5 5t-6 15q-1 29 -3 75q-36 -3 -58 -4q-51 -2 -82 1q-19 1 -30 5q-21 5 -26 20q-2 8 1 19q2 5 6 12q6 12 19 31q20 29 61 84l44 57l42 56q16 22 22 31q4 7 12.5 8.5t15 -3t8.5 -14.5q3 -4 3 -7zM79 14
q258 324 495 676q4 7 12.5 8.5t15.5 -3t8.5 -12.5t-3.5 -16q-238 -353 -497 -679q-5 -6 -13 -7t-14.5 4t-7.5 13.5t4 15.5z" />
    <glyph glyph-name="onehalf" unicode="&#xbd;" horiz-adv-x="733" 
d="M145 681q4 -194 -8 -374q-1 -8 -7.5 -14t-14.5 -5t-13.5 7t-4.5 14q12 180 8 370q0 9 5.5 15t14 6t14.5 -5.5t6 -13.5zM79 14q258 324 495 676q4 7 12.5 8.5t15.5 -3t8.5 -12.5t-3.5 -16q-238 -353 -497 -679q-5 -6 -13 -7t-14.5 4t-7.5 13.5t4 15.5zM430 258
q41 51 81 79q72 50 122 17q16 -10 24 -27.5t8 -35.5q0 -37 -49 -89q-34 -37 -96 -85l-97 -71h138q46 0 96 3q9 1 15 -5t6.5 -14t-5 -14t-13.5 -7q-52 -3 -99 -3h-128h-31q-14 0 -22 1q-7 1 -9 2q-4 1 -8 3q-8 4 -10 14q-2 8 3 16q2 2 5 6t10 9q9 7 31 23l94 69q59 47 91 80
q38 41 38 62q0 20 -13 29q-29 19 -78 -16q-35 -25 -73 -71q-6 -6 -14 -7t-14.5 4.5t-7 14t4.5 13.5z" />
    <glyph glyph-name="threequarters" unicode="&#xbe;" horiz-adv-x="768" 
d="M609 147q0 21 0.5 92.5t-2.5 111.5l-75 -100q-41 -55 -60 -82l-13 -25q43 -3 91 -1q23 1 59 4zM647 403q2 -41 2 -254q37 3 42 3q9 1 15 -5t7 -14t-5 -14t-13 -7q-6 0 -45 -3q1 -45 2 -77q1 -7 -5 -13t-14 -7t-14 5t-7 15q-1 29 -2 75q-37 -3 -58 -4q-52 -2 -82 1
q-19 1 -30 5q-21 5 -26 20q-3 8 1 19q1 5 6 12q6 12 18 31q20 29 61 84l44 57l42 56q16 22 22 31q5 7 13.5 8.5t15 -3t7.5 -14.5q3 -4 3 -7zM79 14q257 324 494 676q5 7 13 8.5t15 -3t8.5 -12.5t-2.5 -16q-239 -353 -498 -679q-4 -6 -12.5 -7t-15 4t-7.5 13.5t5 15.5z
M10 652q44 44 110 62q87 24 126 -34q19 -29 12 -59q-5 -24 -28 -46q-14 -14 -50 -35q46 -22 68 -42q60 -53 39 -117q-23 -69 -119 -76q-61 -5 -133 17q-8 2 -11.5 9.5t-1.5 15.5t9.5 11.5t15.5 1.5q65 -19 119 -16q67 6 83 51q12 37 -27 73q-37 33 -85 42h-3q-2 0 -7 -0.5
t-7 -1.5q-8 -1 -15 1q-18 5 -18 24q0 16 14 23q6 4 16 5t14 1q48 18 71 42q14 12 18 25q3 14 -8 29q-23 35 -82 18q-55 -15 -92 -52q-6 -6 -14 -6t-14 6t-6 14t6 14z" />
    <glyph glyph-name="questiondown" unicode="&#xbf;" horiz-adv-x="404" 
d="M352 211q-16 -30 -56.5 -76.5t-85.5 -80.5q-56 -43 -103 -52q-62 -12 -99 34q-15 19 -20 47t1 49q7 30 23 62.5t27 48.5t39.5 53.5t32.5 43.5q39 53 57 102.5t10 111.5q-1 9 4 15.5t13.5 7.5t15 -4t7.5 -13q9 -73 -12 -129t-63 -115l-33 -45q-27 -36 -37 -50.5t-24.5 -43
t-20.5 -54.5q-3 -15 -0.5 -32.5t12.5 -28.5q22 -28 59 -21q37 8 86 45q43 32 80.5 74.5t51.5 68.5q5 8 12.5 10t14.5 -2t9.5 -11.5t-1.5 -14.5zM209 675q0 -8 -6 -14t-14 -6t-14 6t-6 14t6 14t14 6t14 -6t6 -14z" />
    <glyph glyph-name="Agrave" unicode="&#xc0;" horiz-adv-x="625" 
d="M146 249q128 21 233 23q-25 72 -68 208q0 1 -4 17t-11 41l-11 49l-12 35l-52 -157zM133 207q-37 -114 -57 -201q-1 -8 -8 -12.5t-15 -3t-12.5 8.5t-2.5 15q16 76 50 186q-26 -6 -32.5 -1.5t-8 13t3 15t12.5 7.5l39 8l82 237l51 157l10 32q4 14 7 22q2 6 2.5 8.5t2.5 3.5
q1 5 3 6q5 4 11 5q9 1 17 -6q4 -3 6 -10q2 -3 4 -8q3 -8 7 -24l19 -68l11 -47l10 -41q4 -15 5 -17q46 -148 72 -220q39 0 69 -3q8 -1 13.5 -7t5 -14.5t-7 -14t-15.5 -4.5q-16 2 -49 2q58 -135 130 -229q5 -6 4 -14.5t-7.5 -13.5t-15 -4t-13.5 8q-80 103 -141 255
q-116 -1 -262 -26zM227 832q82 -56 123 -74q7 -3 10 -11t0.5 -15t-10.5 -10t-16 0q-44 19 -130 76q-7 5 -8.5 13t3 15t12.5 8.5t16 -2.5z" />
    <glyph glyph-name="Aacute" unicode="&#xc1;" horiz-adv-x="625" 
d="M146 249q128 21 233 23q-25 72 -68 208q0 1 -4 17t-11 41l-11 49l-12 35l-52 -157zM133 207q-37 -114 -57 -201q-1 -8 -8 -12.5t-15 -3t-12.5 8.5t-2.5 15q16 76 50 186q-26 -6 -32.5 -1.5t-8 13t3 15t12.5 7.5l39 8l82 237l51 157l10 32q4 14 7 22q2 6 2.5 8.5t2.5 3.5
q1 5 3 6q5 4 11 5q9 1 17 -6q4 -3 6 -10q2 -3 4 -8q3 -8 7 -24l19 -68l11 -47l10 -41q4 -15 5 -17q46 -148 72 -220q39 0 69 -3q8 -1 13.5 -7t5 -14.5t-7 -14t-15.5 -4.5q-16 2 -49 2q58 -135 130 -229q5 -6 4 -14.5t-7.5 -13.5t-15 -4t-13.5 8q-80 103 -141 255
q-116 -1 -262 -26z" />
    <glyph glyph-name="Acircumflex" unicode="&#xc2;" horiz-adv-x="625" 
d="M146 249q128 21 233 23q-25 72 -68 208q0 1 -4 17t-11 41l-11 49l-12 35l-52 -157zM133 207q-37 -114 -57 -201q-1 -8 -8 -12.5t-15 -3t-12.5 8.5t-2.5 15q16 76 50 186q-26 -6 -32.5 -1.5t-8 13t3 15t12.5 7.5l39 8l82 237l51 157l10 32q4 14 7 22q2 6 2.5 8.5t2.5 3.5
q1 5 3 6q5 4 11 5q9 1 17 -6q4 -3 6 -10q2 -3 4 -8q3 -8 7 -24l19 -68l11 -47l10 -41q4 -15 5 -17q46 -148 72 -220q39 0 69 -3q8 -1 13.5 -7t5 -14.5t-7 -14t-15.5 -4.5q-16 2 -49 2q58 -135 130 -229q5 -6 4 -14.5t-7.5 -13.5t-15 -4t-13.5 8q-80 103 -141 255
q-116 -1 -262 -26zM162 763q31 21 77 57q16 13 24 18q13 8 25 7q13 -1 26 -11q7 -5 20 -20q52 -60 65 -73q5 -6 5 -14.5t-6 -14t-14.5 -5.5t-13.5 6t-66 75q-7 8 -17 18q-12 -8 -23 -16q-50 -40 -80 -61q-6 -4 -14.5 -2.5t-13 8t-3 15t8.5 13.5z" />
    <glyph glyph-name="Atilde" unicode="&#xc3;" horiz-adv-x="625" 
d="M146 249q128 21 233 23q-25 72 -68 208q0 1 -4 17t-11 41l-11 49l-12 35l-52 -157zM133 207q-37 -114 -57 -201q-1 -8 -8 -12.5t-15 -3t-12.5 8.5t-2.5 15q16 76 50 186q-26 -6 -32.5 -1.5t-8 13t3 15t12.5 7.5l39 8l82 237l51 157l10 32q4 14 7 22q2 6 2.5 8.5t2.5 3.5
q1 5 3 6q5 4 11 5q9 1 17 -6q4 -3 6 -10q2 -3 4 -8q3 -8 7 -24l19 -68l11 -47l10 -41q4 -15 5 -17q46 -148 72 -220q39 0 69 -3q8 -1 13.5 -7t5 -14.5t-7 -14t-15.5 -4.5q-16 2 -49 2q58 -135 130 -229q5 -6 4 -14.5t-7.5 -13.5t-15 -4t-13.5 8q-80 103 -141 255
q-116 -1 -262 -26zM152 787q50 50 88 46q24 -3 53 -35q18 -18 26 -20q20 0 55 37q5 6 13.5 6.5t14 -5t6 -13.5t-4.5 -14q-48 -53 -85 -51q-25 2 -54 34q-19 19 -28 21q-19 3 -56 -34q-6 -6 -14 -6t-14 6t-6 14t6 14z" />
    <glyph glyph-name="Adieresis" unicode="&#xc4;" horiz-adv-x="625" 
d="M146 249q128 21 233 23q-25 72 -68 208q0 1 -4 17t-11 41l-11 49l-12 35l-52 -157zM133 207q-37 -114 -57 -201q-1 -8 -8 -12.5t-15 -3t-12.5 8.5t-2.5 15q16 76 50 186q-26 -6 -32.5 -1.5t-8 13t3 15t12.5 7.5l39 8l82 237l51 157l10 32q4 14 7 22q2 6 2.5 8.5t2.5 3.5
q1 5 3 6q5 4 11 5q9 1 17 -6q4 -3 6 -10q2 -3 4 -8q3 -8 7 -24l19 -68l11 -47l10 -41q4 -15 5 -17q46 -148 72 -220q39 0 69 -3q8 -1 13.5 -7t5 -14.5t-7 -14t-15.5 -4.5q-16 2 -49 2q58 -135 130 -229q5 -6 4 -14.5t-7.5 -13.5t-15 -4t-13.5 8q-80 103 -141 255
q-116 -1 -262 -26zM244 799q0 -8 -6 -14t-14 -6t-14 6t-6 14t6 14t14 6t14 -6t6 -14zM352 801q0 -8 -6 -14t-14 -6t-14 6t-6 14t6 14t14 6t14 -6t6 -14z" />
    <glyph glyph-name="Aring" unicode="&#xc5;" horiz-adv-x="625" 
d="M146 249q128 21 233 23q-25 72 -68 208q0 1 -4 17t-11 41l-11 49l-12 35l-52 -157zM133 207q-37 -114 -57 -201q-1 -8 -8 -12.5t-15 -3t-12.5 8.5t-2.5 15q16 76 50 186q-26 -6 -32.5 -1.5t-8 13t3 15t12.5 7.5l39 8l82 237q34 101 51 157l10 31q-48 4 -72 20
q-38 25 -37 69q1 40 34 71t82 36q59 6 98 -18t41 -65q2 -33 -20 -58.5t-69 -41.5l2 -14l20 -69l11 -47l10 -41q4 -15 5 -17q46 -148 72 -220q39 0 69 -3q8 -1 13.5 -7t5 -14.5t-7 -14t-15.5 -4.5q-16 2 -49 2q58 -135 130 -229q5 -6 4 -14.5t-7.5 -13.5t-15 -4t-13.5 8
q-80 103 -141 255q-116 -1 -262 -26zM261 714q25 2 44.5 9t29 17t13 19t3.5 19q-1 11 -8.5 21.5t-31.5 18.5q-23 8 -55 5q-36 -3 -57.5 -24.5t-22.5 -43.5q0 -22 19 -34q18 -13 53 -14q7 6 13 7z" />
    <glyph glyph-name="AE" unicode="&#xc6;" horiz-adv-x="933" 
d="M163 297q115 -10 211 -10q-23 67 -63 193q0 1 -4 17t-11 41l-11 49l-12 35l-52 -157zM149 259q-50 -150 -73 -253q-1 -8 -8 -12.5t-15 -3t-12.5 8.5t-2.5 15q22 101 70 246q-16 6 -20 12t-4 13q2 9 8 14t14 4l16 -2l62 178l51 157l10 32l2 7q-2 5 -2 7q0 10 8 17l4 3
q1 5 3 6q5 4 11 5q9 1 16 -5q2 -2 8 -5q39 1 114 10q100 12 150 12q8 0 14 -6t6 -14t-6 -14t-14 -6q-48 0 -145 -11q-64 -8 -109 -11l19 -66l11 -47l10 -41q4 -15 5 -17q42 -137 66 -203q146 8 271 47q8 2 15.5 -1.5t10 -11.5t-1.5 -15.5t-12 -9.5q-122 -38 -268 -48
q57 -142 131 -240q202 23 299 21q8 0 13.5 -6t5.5 -14.5t-6 -14t-15 -5.5q-92 2 -298 -21h-6q-11 -1 -19 8q-84 107 -147 270q-105 -2 -240 11z" />
    <glyph glyph-name="Ccedilla" unicode="&#xc7;" horiz-adv-x="539" 
d="M323 557q-26 68 -64 90q-30 17 -66 2t-70 -59q-33 -42 -51 -98q-36 -115 -31 -225q7 -133 76 -202q24 -23 67 -35q92 -23 169 54q66 66 97 171q3 8 10.5 11.5t15.5 1.5t11.5 -9.5t1.5 -15.5q-35 -115 -108 -188q-75 -74 -170 -70l-14 -21q20 -12 28 -20q31 -29 21 -56
q-9 -20 -40 -31q-32 -10 -85 -12q-8 0 -14.5 5.5t-6.5 13.5t5.5 14.5t13.5 6.5q48 2 72 10q2 0 19 8l-11 11q-9 8 -19 12q-14 8 -19 14q-11 14 -2 35l9 18q-52 17 -79 44q-80 78 -88 228q-6 119 32 239q21 62 59.5 112.5t85.5 70.5q53 22 101 -6q50 -28 82 -109
q2 -8 -1.5 -15.5t-11 -10.5t-15 0.5t-10.5 10.5z" />
    <glyph glyph-name="Egrave" unicode="&#xc8;" horiz-adv-x="520" 
d="M56 665q27 1 132 13q95 11 157 10q7 0 13 -6t6 -14.5t-6 -14t-15 -5.5q-58 1 -150 -9q-105 -12 -136 -15q6 -92 6 -221q147 26 236 28q9 0 15 -5.5t6 -14t-6 -14.5t-13 -6q-89 -2 -238 -29q-1 -159 -1 -163q0 -6 -1.5 -36.5t-1.5 -49.5q-1 -30 0 -49q1 -9 1 -18
q7 -7 11 -7q12 -3 38 -3q44 -1 120 7q54 6 134 18l80 12q9 1 15 -4t7 -13.5t-4 -15t-12 -7.5q-1 0 -82 -12t-133 -18q-80 -8 -126 -7q-29 0 -47 5q-26 6 -34 22q-6 11 -8 40q-1 19 0 51q0 20 1.5 49.5t1.5 35.5q0 35 0.5 112.5t0.5 122t-2 110t-6 119.5q-1 8 4.5 14t14.5 7
q14 1 22 -19zM116 823q82 -44 133 -67q7 -3 9.5 -11t-1 -15.5t-11 -10t-15.5 0.5q-51 24 -134 69q-7 3 -9.5 11t1.5 15.5t12 9.5t15 -2z" />
    <glyph glyph-name="Eacute" unicode="&#xc9;" horiz-adv-x="520" 
d="M56 665q27 1 132 13q95 11 157 10q7 0 13 -6t6 -14.5t-6 -14t-15 -5.5q-58 1 -150 -9q-105 -12 -136 -15q6 -92 6 -221q147 26 236 28q9 0 15 -5.5t6 -14t-6 -14.5t-13 -6q-89 -2 -238 -29q-1 -159 -1 -163q0 -6 -1.5 -36.5t-1.5 -49.5q-1 -30 0 -49q1 -9 1 -18
q7 -7 11 -7q12 -3 38 -3q44 -1 120 7q54 6 134 18l80 12q9 1 15 -4t7 -13.5t-4 -15t-12 -7.5q-1 0 -82 -12t-133 -18q-80 -8 -126 -7q-29 0 -47 5q-26 6 -34 22q-6 11 -8 40q-1 19 0 51q0 20 1.5 49.5t1.5 35.5q0 35 0.5 112.5t0.5 122t-2 110t-6 119.5q-1 8 4.5 14t14.5 7
q14 1 22 -19zM102 750q53 28 108 71q7 6 15 5t13 -7.5t4.5 -15t-6.5 -12.5q-59 -47 -115 -77q-7 -3 -15 -1t-12 9.5t-1.5 15.5t9.5 12z" />
    <glyph glyph-name="Ecircumflex" unicode="&#xca;" horiz-adv-x="520" 
d="M56 665q27 1 132 13q95 11 157 10q7 0 13 -6t6 -14.5t-6 -14t-15 -5.5q-58 1 -150 -9q-105 -12 -136 -15q6 -92 6 -221q147 26 236 28q9 0 15 -5.5t6 -14t-6 -14.5t-13 -6q-89 -2 -238 -29q-1 -159 -1 -163q0 -6 -1.5 -36.5t-1.5 -49.5q-1 -30 0 -49q1 -9 1 -18
q7 -7 11 -7q12 -3 38 -3q44 -1 120 7q54 6 134 18l80 12q9 1 15 -4t7 -13.5t-4 -15t-12 -7.5q-1 0 -82 -12t-133 -18q-80 -8 -126 -7q-29 0 -47 5q-26 6 -34 22q-6 11 -8 40q-1 19 0 51q0 20 1.5 49.5t1.5 35.5q0 35 0.5 112.5t0.5 122t-2 110t-6 119.5q-1 8 4.5 14t14.5 7
q14 1 22 -19zM64 751q63 79 65 81q28 34 52 33q21 -1 53 -29l73 -67q7 -5 7.5 -13.5t-4.5 -14.5t-13.5 -7t-13.5 4q-1 1 -76 67q-13 13 -30 24q-7 -11 -18 -22q-1 -1 -63 -82q-5 -6 -13.5 -7t-15 4t-7.5 13.5t4 15.5z" />
    <glyph glyph-name="Edieresis" unicode="&#xcb;" horiz-adv-x="520" 
d="M56 665q27 1 132 13q95 11 157 10q7 0 13 -6t6 -14.5t-6 -14t-15 -5.5q-58 1 -150 -9q-105 -12 -136 -15q6 -92 6 -221q147 26 236 28q9 0 15 -5.5t6 -14t-6 -14.5t-13 -6q-89 -2 -238 -29q-1 -159 -1 -163q0 -6 -1.5 -36.5t-1.5 -49.5q-1 -30 0 -49q1 -9 1 -18
q7 -7 11 -7q12 -3 38 -3q44 -1 120 7q54 6 134 18l80 12q9 1 15 -4t7 -13.5t-4 -15t-12 -7.5q-1 0 -82 -12t-133 -18q-80 -8 -126 -7q-29 0 -47 5q-26 6 -34 22q-6 11 -8 40q-1 19 0 51q0 20 1.5 49.5t1.5 35.5q0 35 0.5 112.5t0.5 122t-2 110t-6 119.5q-1 8 4.5 14t14.5 7
q14 1 22 -19zM137 768q0 -8 -6 -14t-14 -6t-14 6t-6 14t6 14t14 6t14 -6t6 -14zM267 774q0 -8 -6 -14t-14 -6t-14 6t-6 14t6 14t14 6t14 -6t6 -14z" />
    <glyph glyph-name="Igrave" unicode="&#xcc;" horiz-adv-x="419" 
d="M-1 679q162 4 310 23q8 1 14.5 -4t7.5 -13.5t-4 -15t-13 -7.5q-67 -8 -148 -15q5 -97 5.5 -193t-1.5 -222.5t-2 -194.5q106 7 180 -2q8 -1 13 -7.5t4 -15t-7.5 -13.5t-14.5 -4q-33 4 -66.5 5.5t-75 -1.5t-63 -5t-76.5 -8.5t-69 -8.5q-7 -1 -13.5 4t-7.5 13.5t4 15t14 7.5
q15 2 59 7l79 9q0 70 2 194.5t1.5 221.5t-5.5 196q-67 -5 -126 -6q-8 0 -14 5.5t-6 14t5.5 14.5t13.5 6zM53 824l132 -69q7 -3 9.5 -11t-1 -15.5t-11.5 -9.5t-16 2l-130 67q-8 4 -10.5 11.5t1.5 15.5t11.5 10t14.5 -1z" />
    <glyph glyph-name="Iacute" unicode="&#xcd;" horiz-adv-x="419" 
d="M-1 679q162 4 310 23q8 1 14.5 -4t7.5 -13.5t-4 -15t-13 -7.5q-67 -8 -148 -15q5 -97 5.5 -193t-1.5 -222.5t-2 -194.5q106 7 180 -2q8 -1 13 -7.5t4 -15t-7.5 -13.5t-14.5 -4q-33 4 -66.5 5.5t-75 -1.5t-63 -5t-76.5 -8.5t-69 -8.5q-7 -1 -13.5 4t-7.5 13.5t4 15t14 7.5
q15 2 59 7l79 9q0 70 2 194.5t1.5 221.5t-5.5 196q-67 -5 -126 -6q-8 0 -14 5.5t-6 14t5.5 14.5t13.5 6zM75 755q46 17 99 58q7 5 15 4t13 -8t4 -15t-8 -13q-57 -44 -110 -64q-7 -2 -14.5 1t-10.5 11t0.5 15.5t11.5 10.5z" />
    <glyph glyph-name="Icircumflex" unicode="&#xce;" horiz-adv-x="419" 
d="M-1 679q162 4 310 23q8 1 14.5 -4t7.5 -13.5t-4 -15t-13 -7.5q-67 -8 -148 -15q5 -97 5.5 -193t-1.5 -222.5t-2 -194.5q106 7 180 -2q8 -1 13 -7.5t4 -15t-7.5 -13.5t-14.5 -4q-33 4 -66.5 5.5t-75 -1.5t-63 -5t-76.5 -8.5t-69 -8.5q-7 -1 -13.5 4t-7.5 13.5t4 15t14 7.5
q15 2 59 7l79 9q0 70 2 194.5t1.5 221.5t-5.5 196q-67 -5 -126 -6q-8 0 -14 5.5t-6 14t5.5 14.5t13.5 6zM18 749q63 79 66 82q28 33 53 29q12 -2 25 -14q7 -5 21 -22q40 -45 66 -69q6 -6 6 -14.5t-6 -14.5t-14.5 -6t-14.5 5q-26 26 -67 73q-11 12 -22 25q-12 -12 -16 -17
q-2 -1 -65 -83q-5 -6 -13.5 -7t-15 4t-7.5 13.5t4 15.5z" />
    <glyph glyph-name="Idieresis" unicode="&#xcf;" horiz-adv-x="419" 
d="M-1 679q162 4 310 23q8 1 14.5 -4t7.5 -13.5t-4 -15t-13 -7.5q-67 -8 -148 -15q5 -97 5.5 -193t-1.5 -222.5t-2 -194.5q106 7 180 -2q8 -1 13 -7.5t4 -15t-7.5 -13.5t-14.5 -4q-33 4 -66.5 5.5t-75 -1.5t-63 -5t-76.5 -8.5t-69 -8.5q-7 -1 -13.5 4t-7.5 13.5t4 15t14 7.5
q15 2 59 7l79 9q0 70 2 194.5t1.5 221.5t-5.5 196q-67 -5 -126 -6q-8 0 -14 5.5t-6 14t5.5 14.5t13.5 6zM88 774q0 -8 -6.5 -14t-14 -6t-13.5 6t-6 14t6 14t13.5 6t14 -6t6.5 -14zM201 775q0 -8 -6.5 -14t-14 -6t-13.5 6t-6 14t6 14t13.5 6t14 -6t6.5 -14z" />
    <glyph glyph-name="Eth" unicode="&#xd0;" horiz-adv-x="543" 
d="M75 38q194 -21 293 55q112 87 69 272q-22 90 -80 159.5t-141 100.5q-39 15 -143 16q8 -118 10 -236q48 1 85 3q8 1 14 -5t7 -14t-5 -14t-14 -7q-37 -2 -86 -3q1 -166 -9 -327zM71 681h19q14 0 19.5 -0.5t19 -0.5t21 -1t19.5 -2.5t21 -3.5l21 -5q10 -2 18 -5
q94 -34 158.5 -112t87.5 -176q25 -110 3 -188q-22 -77 -85 -125q-114 -87 -320 -63q-9 -16 -21 -15q-9 1 -14.5 7t-4.5 14q12 171 11 358q-59 -1 -108 -1q-8 0 -14 6t-6 14t6 14t14 6q50 0 107 1q-2 135 -11 260q-1 8 4.5 14t14.5 7q5 1 13 -3h7z" />
    <glyph glyph-name="Ntilde" unicode="&#xd1;" horiz-adv-x="556" 
d="M85 665l57 -127q42 -93 64 -138t62 -113.5t83 -120.5q20 -25 78 -87l28 -34l-10 63q-20 118 -20 122q-10 97 -13 167.5t6.5 161t38.5 166.5q3 8 10.5 11t15 0.5t11 -10t0.5 -15.5q-26 -73 -35 -158q-10 -85 -7.5 -154.5t13.5 -165.5q0 -1 20 -119q8 -47 11 -73
q3 -16 4 -25v-10v-5q0 -5 -3 -9q-7 -12 -20 -10q-4 1 -9 3q-3 1 -7 5q-7 5 -17 15l-46 47q-58 62 -80 88q-45 56 -85 124q-41 70 -66 121l-82 176q2 -142 0 -317t-2 -232q0 -8 -6 -14t-14 -6t-14 6t-6 14q0 67 2 203.5t1.5 243.5t-5.5 204q-1 8 4.5 14t14.5 7q7 1 12 -3
t9 -12zM135 756q48 26 76 30q26 3 46 -12q7 -5 11.5 -9t9.5 -7q12 -6 34 -3q10 1 17 5l18 9q11 5 22 9q8 2 15.5 -1t10.5 -11t-0.5 -15t-10.5 -11q-3 -1 -16.5 -7.5t-26.5 -11t-24 -6.5q-34 -5 -57 7q-5 3 -11 7l-11 8l-4 5q-8 6 -18 4q-20 -2 -62 -24q-7 -4 -15 -2t-12 9.5
t-1.5 15.5t9.5 11z" />
    <glyph glyph-name="Ograve" unicode="&#xd2;" 
d="M245 658q-40 -6 -44 -8q-59 -22 -98 -121q-41 -97 -43 -215q-2 -121 40 -200q46 -83 133 -85q76 -2 121 80.5t48 206.5q2 124 -38 220q-43 99 -113 120q-2 0 -6 2zM259 694h4q88 -25 138 -143q43 -104 41 -236q-3 -133 -52 -223q-58 -106 -159 -103q-109 3 -166 107
q-47 86 -45 219q2 125 45 229q48 114 120 144q9 2 20 4.5t23 4t13 1.5q9 2 18 -4zM157 825l46 -22l42 -20q8 -4 10.5 -11.5t-0.5 -15t-11 -10t-15 0.5q-13 5 -42.5 19t-45.5 21q-7 3 -10 11.5t0 15.5t11 10t15 1z" />
    <glyph glyph-name="Oacute" unicode="&#xd3;" 
d="M245 658q-40 -6 -44 -8q-59 -22 -98 -121q-41 -97 -43 -215q-2 -121 40 -200q46 -83 133 -85q76 -2 121 80.5t48 206.5q2 124 -38 220q-43 99 -113 120q-2 0 -6 2zM259 694h4q88 -25 138 -143q43 -104 41 -236q-3 -133 -52 -223q-58 -106 -159 -103q-109 3 -166 107
q-47 86 -45 219q2 125 45 229q48 114 120 144q9 2 20 4.5t23 4t13 1.5q9 2 18 -4zM145 752q40 15 99 56q8 4 16 2.5t12.5 -8.5t3 -15t-8.5 -13q-64 -42 -107 -60q-9 -2 -16 1t-10 11t0 15t11 11z" />
    <glyph glyph-name="Ocircumflex" unicode="&#xd4;" 
d="M245 658q-40 -6 -44 -8q-59 -22 -98 -121q-41 -97 -43 -215q-2 -121 40 -200q46 -83 133 -85q76 -2 121 80.5t48 206.5q2 124 -38 220q-43 99 -113 120q-2 0 -6 2zM259 694h4q88 -25 138 -143q43 -104 41 -236q-3 -133 -52 -223q-58 -106 -159 -103q-109 3 -166 107
q-47 86 -45 219q2 125 45 229q48 114 120 144q9 2 20 4.5t23 4t13 1.5q9 2 18 -4zM126 736q45 58 61 75q29 29 55 23q18 -5 45 -37q56 -64 59 -68q6 -7 5.5 -15t-6.5 -13.5t-14 -5t-14 6.5q-4 4 -60 70q-13 14 -24 25q-12 -8 -17 -14q-15 -14 -58 -71q-5 -7 -13 -8t-15 4
t-8 13t4 15z" />
    <glyph glyph-name="Otilde" unicode="&#xd5;" 
d="M245 658q-40 -6 -44 -8q-59 -22 -98 -121q-41 -97 -43 -215q-2 -121 40 -200q46 -83 133 -85q76 -2 121 80.5t48 206.5q2 124 -38 220q-43 99 -113 120q-2 0 -6 2zM259 694h4q88 -25 138 -143q43 -104 41 -236q-3 -133 -52 -223q-58 -106 -159 -103q-109 3 -166 107
q-47 86 -45 219q2 125 45 229q48 114 120 144q9 2 20 4.5t23 4t13 1.5q9 2 18 -4zM132 743q34 53 72 57q25 4 61 -18q27 -15 34 -16q14 -2 32 27q4 6 12 8t15 -2t9 -12t-2 -16q-29 -46 -66 -45q-18 1 -54 22q-24 15 -36 12q-20 -1 -43 -38q-5 -7 -13 -8.5t-15 3t-8.5 12.5
t2.5 14z" />
    <glyph glyph-name="Odieresis" unicode="&#xd6;" 
d="M245 658q-40 -6 -44 -8q-59 -22 -98 -121q-41 -97 -43 -215q-2 -121 40 -200q46 -83 133 -85q76 -2 121 80.5t48 206.5q2 124 -38 220q-43 99 -113 120q-2 0 -6 2zM259 694h4q88 -25 138 -143q43 -104 41 -236q-3 -133 -52 -223q-58 -106 -159 -103q-109 3 -166 107
q-47 86 -45 219q2 125 45 229q48 114 120 144q9 2 20 4.5t23 4t13 1.5q9 2 18 -4zM196 766q0 -8 -6 -14t-14 -6t-14 6t-6 14t6 14t14 6t14 -6t6 -14zM305 771q0 -8 -6 -14t-14 -6t-14 6t-6 14t6 14t14 6t14 -6t6 -14z" />
    <glyph glyph-name="multiply" unicode="&#xd7;" horiz-adv-x="410" 
d="M217 325q-48 -66 -89 -103q-5 -6 -13.5 -5t-14 7t-5 14t6.5 14q40 37 87 103q-55 60 -94 123q-5 6 -3.5 14t8.5 12.5t15 3t13 -8.5q34 -53 83 -111l58 90q4 7 12 8.5t15 -2.5t9 -12.5t-3 -14.5l-62 -98q53 -54 108 -96q7 -5 8 -13t-4 -15t-13 -8t-15 4q-53 41 -107 94z
" />
    <glyph glyph-name="Oslash" unicode="&#xd8;" horiz-adv-x="611" 
d="M387 459q-11 44 -24 77q-43 99 -113 120q-2 0 -7 2q-40 -6 -44 -8q-58 -22 -98 -121q-40 -97 -42 -215q-1 -56 11 -124l111 104l94 80q56 46 112 85zM395 415q-62 -44 -120 -93l-86 -77l-105 -97q8 -20 15 -34q46 -83 132 -85q77 -2 122 80.5t48 206.5q1 42 -6 99z
M52 118l-75 -68q-6 -6 -14.5 -5t-14 7t-5 14t6.5 14l88 80q-20 73 -19 155q2 125 45 229q47 114 120 144q8 2 19 4.5t23 4t14 1.5q9 2 18 -4h3q88 -25 138 -143q11 -26 24 -68q58 35 105 59q7 3 15 1t11.5 -10t1 -15.5t-10.5 -11.5q-54 -27 -114 -66q11 -65 10 -125
q-3 -133 -52 -223q-58 -106 -159 -103q-109 3 -167 107q-3 5 -11 22z" />
    <glyph glyph-name="Ugrave" unicode="&#xd9;" horiz-adv-x="479" 
d="M77 667q-1 -91 -3 -170t8 -169q10 -89 34 -163q19 -56 42 -91q32 -46 69 -40q47 7 81 80q32 67 51 182q21 129 27 356q0 8 6 13.5t14.5 5.5t14 -6t5.5 -15q-6 -227 -28 -360q-20 -123 -53 -194q-45 -92 -113 -102q-60 -8 -107 58q-27 39 -48 101q-24 76 -34.5 170
t-8.5 175t3 171q0 8 6 13.5t14.5 5.5t14 -6t5.5 -15zM185 788q59 -26 113 -72q6 -6 7 -14.5t-5 -14.5t-14 -7t-15 5q-49 44 -102 65q-7 3 -10 11t0 15.5t10.5 10.5t15.5 1z" />
    <glyph glyph-name="Uacute" unicode="&#xda;" horiz-adv-x="479" 
d="M77 667q-1 -91 -3 -170t8 -169q10 -89 34 -163q19 -56 42 -91q32 -46 69 -40q47 7 81 80q32 67 51 182q21 129 27 356q0 8 6 13.5t14.5 5.5t14 -6t5.5 -15q-6 -227 -28 -360q-20 -123 -53 -194q-45 -92 -113 -102q-60 -8 -107 58q-27 39 -48 101q-24 76 -34.5 170
t-8.5 175t3 171q0 8 6 13.5t14.5 5.5t14 -6t5.5 -15zM178 738l112 78q7 4 15 2.5t12.5 -8.5t3 -15t-8.5 -13l-110 -76q-8 -5 -15.5 -4t-12.5 8t-4 15t8 13z" />
    <glyph glyph-name="Ucircumflex" unicode="&#xdb;" horiz-adv-x="479" 
d="M77 667q-1 -91 -3 -170t8 -169q10 -89 34 -163q19 -56 42 -91q32 -46 69 -40q47 7 81 80q32 67 51 182q21 129 27 356q0 8 6 13.5t14.5 5.5t14 -6t5.5 -15q-6 -227 -28 -360q-20 -123 -53 -194q-45 -92 -113 -102q-60 -8 -107 58q-27 39 -48 101q-24 76 -34.5 170
t-8.5 175t3 171q0 8 6 13.5t14.5 5.5t14 -6t5.5 -15zM119 727q41 51 52 62q27 27 50 29q26 3 53 -25q18 -19 55 -72q4 -6 2.5 -14.5t-8 -13t-15 -3t-13.5 8.5q-32 48 -50 66q-11 11 -20 13q-11 -2 -25 -17q-10 -9 -51 -59q-5 -6 -13.5 -7t-14.5 4.5t-7 14t5 13.5z" />
    <glyph glyph-name="Udieresis" unicode="&#xdc;" horiz-adv-x="479" 
d="M77 667q-1 -91 -3 -170t8 -169q10 -89 34 -163q19 -56 42 -91q32 -46 69 -40q47 7 81 80q32 67 51 182q21 129 27 356q0 8 6 13.5t14.5 5.5t14 -6t5.5 -15q-6 -227 -28 -360q-20 -123 -53 -194q-45 -92 -113 -102q-60 -8 -107 58q-27 39 -48 101q-24 76 -34.5 170
t-8.5 175t3 171q0 8 6 13.5t14.5 5.5t14 -6t5.5 -15zM196 769q0 -8 -6 -14t-14 -6t-14 6t-6 14t6 14t14 6t14 -6t6 -14zM305 769q0 -8 -6 -14t-14 -6t-14 6t-6 14t6 14t14 6t14 -6t6 -14z" />
    <glyph glyph-name="Yacute" unicode="&#xdd;" horiz-adv-x="513" 
d="M98 703l5 -23l7 -36l7 -38q18 -80 34 -135q21 -76 45 -119q24 -45 46 -46q20 -1 50 41q27 40 58 118q39 101 71 230q2 8 9 12t15 2t12.5 -9t2.5 -15q-34 -134 -73 -234q-32 -81 -62 -126q-26 -39 -59 -55q0 -51 -3.5 -136t-4.5 -124q0 -9 -6 -14.5t-14 -5.5t-14 6t-6 14
q1 40 4 123.5t4 134.5q-39 15 -66 65q-25 46 -48 127q-16 56 -33 138q-4 15 -8 37t-7 35l-5 23q-2 8 2.5 15t12.5 9t15 -2t9 -12zM211 744q51 47 110 79q7 4 15.5 2t12 -9t1.5 -15t-9 -12q-55 -31 -104 -75q-6 -6 -14 -5t-13.5 7t-5 14t6.5 14z" />
    <glyph glyph-name="Thorn" unicode="&#xde;" horiz-adv-x="445" 
d="M74 73q1 -85 1 -154q0 -8 -6 -14t-14 -6t-14 6t-6 14q0 133 -12 780q0 9 5.5 15t14 6t14.5 -5.5t6 -13.5q1 -65 4 -218q80 67 153 85q63 15 106 -5q51 -25 63 -95q17 -104 -100 -231q-85 -94 -197 -160q-4 -2 -18 -4zM69 423l5 -311q112 72 185 151q105 114 90 199
q-8 50 -41 65q-30 15 -78 3q-45 -12 -90 -41.5t-65 -58.5q-2 -3 -6 -7z" />
    <glyph glyph-name="germandbls" unicode="&#xdf;" horiz-adv-x="493" 
d="M244 370q-14 42 -44 11q22 0 44 -11zM103 18q20 59 22 61q6 6 14 7t14 -5q34 -31 82.5 -33.5t91.5 20.5q44 23 67.5 63.5t16.5 88.5q-7 42 -31 63t-64 32q-14 4 -37 8q-27 5 -35 7q-44 10 -60 31q-12 16 -4 39q5 14 18 33l31 39q21 28 27 35q36 47 47 78.5t-7 52.5
q-36 42 -102 18q-31 -10 -55.5 -30.5t-34.5 -42.5q-35 -78 -21 -269l10 -103q8 -93 10 -193zM61 23q2 35 0 78t-8.5 112t-9.5 98q-15 201 25 288q13 31 44 57t68 39q26 8 51 9t51 -9t45 -32q32 -38 12 -93q-12 -35 -51 -87q-7 -8 -27 -34l-30 -38q-7 -11 -14 -26
q20 -12 36 -17q8 -1 34 -6q23 -5 38 -9q109 -28 126 -127q9 -62 -21.5 -113.5t-84.5 -79.5q-35 -18 -73 -24t-76.5 4.5t-69.5 38.5q-4 3 -24 65q0 -81 -1 -96q-1 -8 -7 -14t-14.5 -5t-14 7t-4.5 14z" />
    <glyph glyph-name="agrave" unicode="&#xe0;" horiz-adv-x="415" 
d="M292 156q-14 54 -30 76q-48 63 -107 60q-51 -3 -91.5 -52t-39.5 -104q0 -57 48 -84q64 -36 139 21q38 29 81 83zM43 407q54 78 131 86q92 9 141 -83q31 -59 42 -157q5 -47 5 -158v-62q0 -12 -1 -19q0 -5 -1 -7q-1 -5 -4 -9q-5 -8 -16 -8q-8 -1 -15 7q-5 6 -8 19
q-2 9 -5 25l-10 64q-41 -44 -67 -64q-96 -73 -183 -23q-37 20 -54 52t-15 67t15 68.5t35 59.5q52 62 120 67q79 5 141 -76l27 -40q-15 126 -41 176q-36 68 -102 61q-58 -7 -101 -68q-6 -7 -14 -8.5t-14.5 3.5t-8 13t2.5 14zM151 672q8 -11 37 -51q22 -31 36 -48q6 -7 5 -15
t-7.5 -13.5t-14.5 -4.5t-13 7q-15 18 -39 51l-36 50q-5 6 -4 14.5t7.5 13.5t15 4t13.5 -8z" />
    <glyph glyph-name="aacute" unicode="&#xe1;" horiz-adv-x="415" 
d="M292 156q-14 54 -30 76q-48 63 -107 60q-51 -3 -91.5 -52t-39.5 -104q0 -57 48 -84q64 -36 139 21q38 29 81 83zM43 407q54 78 131 86q92 9 141 -83q31 -59 42 -157q5 -47 5 -158v-62q0 -12 -1 -19q0 -5 -1 -7q-1 -5 -4 -9q-5 -8 -16 -8q-8 -1 -15 7q-5 6 -8 19
q-2 9 -5 25l-10 64q-41 -44 -67 -64q-96 -73 -183 -23q-37 20 -54 52t-15 67t15 68.5t35 59.5q52 62 120 67q79 5 141 -76l27 -40q-15 126 -41 176q-36 68 -102 61q-58 -7 -101 -68q-6 -7 -14 -8.5t-14.5 3.5t-8 13t2.5 14zM132 586q95 95 122 119q6 6 14 5t14 -7t5 -14
t-7 -14l-120 -117q-6 -6 -14 -6t-14 6t-6 14t6 14z" />
    <glyph glyph-name="acircumflex" unicode="&#xe2;" horiz-adv-x="415" 
d="M292 156q-14 54 -30 76q-48 63 -107 60q-51 -3 -91.5 -52t-39.5 -104q0 -57 48 -84q64 -36 139 21q38 29 81 83zM43 407q54 78 131 86q92 9 141 -83q31 -59 42 -157q5 -47 5 -158v-62q0 -12 -1 -19q0 -5 -1 -7q-1 -5 -4 -9q-5 -8 -16 -8q-8 -1 -15 7q-5 6 -8 19
q-2 9 -5 25l-10 64q-41 -44 -67 -64q-96 -73 -183 -23q-37 20 -54 52t-15 67t15 68.5t35 59.5q52 62 120 67q79 5 141 -76l27 -40q-15 126 -41 176q-36 68 -102 61q-58 -7 -101 -68q-6 -7 -14 -8.5t-14.5 3.5t-8 13t2.5 14zM61 579l59 71q26 32 46 35q24 4 54 -25
q14 -13 69 -75q6 -7 5 -15t-7.5 -14t-14.5 -5t-14 7q-54 62 -65 73q-9 8 -21 15q-12 -10 -22 -23q-59 -69 -59 -70q-6 -6 -14.5 -7t-14 5t-6.5 14t5 14z" />
    <glyph glyph-name="atilde" unicode="&#xe3;" horiz-adv-x="415" 
d="M292 156q-14 54 -30 76q-48 63 -107 60q-51 -3 -91.5 -52t-39.5 -104q0 -57 48 -84q64 -36 139 21q38 29 81 83zM43 407q54 78 131 86q92 9 141 -83q31 -59 42 -157q5 -47 5 -158v-62q0 -12 -1 -19q0 -5 -1 -7q-1 -5 -4 -9q-5 -8 -16 -8q-8 -1 -15 7q-5 6 -8 19
q-2 9 -5 25l-10 64q-41 -44 -67 -64q-96 -73 -183 -23q-37 20 -54 52t-15 67t15 68.5t35 59.5q52 62 120 67q79 5 141 -76l27 -40q-15 126 -41 176q-36 68 -102 61q-58 -7 -101 -68q-6 -7 -14 -8.5t-14.5 3.5t-8 13t2.5 14zM55 582q13 34 28.5 52t37.5 17q16 0 34 -12
l28 -22q30 -24 50 -24q32 0 71 52q5 7 13 8t14.5 -4t7.5 -13t-3 -15q-51 -67 -102 -68q-35 -1 -76 33q-22 17 -26 20t-13 7q-15 -14 -27 -45q-2 -8 -10 -11t-15.5 -0.5t-10.5 10t-1 15.5z" />
    <glyph glyph-name="adieresis" unicode="&#xe4;" horiz-adv-x="415" 
d="M292 156q-14 54 -30 76q-48 63 -107 60q-51 -3 -91.5 -52t-39.5 -104q0 -57 48 -84q64 -36 139 21q38 29 81 83zM43 407q54 78 131 86q92 9 141 -83q31 -59 42 -157q5 -47 5 -158v-62q0 -12 -1 -19q0 -5 -1 -7q-1 -5 -4 -9q-5 -8 -16 -8q-8 -1 -15 7q-5 6 -8 19
q-2 9 -5 25l-10 64q-41 -44 -67 -64q-96 -73 -183 -23q-37 20 -54 52t-15 67t15 68.5t35 59.5q52 62 120 67q79 5 141 -76l27 -40q-15 126 -41 176q-36 68 -102 61q-58 -7 -101 -68q-6 -7 -14 -8.5t-14.5 3.5t-8 13t2.5 14zM149 608q0 -8 -6 -14t-14 -6t-14 6t-6 14t6 14
t14 6t14 -6t6 -14zM251 613q0 -8 -6 -14t-14 -6t-14 6t-6 14t6 14t14 6t14 -6t6 -14z" />
    <glyph glyph-name="aring" unicode="&#xe5;" horiz-adv-x="415" 
d="M292 156q-14 54 -30 76q-48 63 -107 60q-51 -3 -91.5 -52t-39.5 -104q0 -57 48 -84q64 -36 139 21q38 29 81 83zM210 716q7 6 13 6q57 0 82 -34q23 -31 11 -73q-11 -39 -46.5 -66.5t-83.5 -22.5q-54 5 -76 38q-20 31 -6 71q11 30 39 53.5t67 27.5zM43 407q54 78 131 86
q92 9 141 -83q31 -59 42 -157q5 -47 5 -158v-62q0 -12 -1 -19q0 -5 -1 -7q-1 -5 -4 -9q-5 -8 -16 -8q-8 -1 -15 7q-5 6 -8 19q-2 9 -5 25l-10 64q-41 -44 -67 -64q-96 -73 -183 -23q-37 20 -54 52t-15 67t15 68.5t35 59.5q52 62 120 67q79 5 141 -76l27 -40q-15 126 -41 176
q-36 68 -102 61q-58 -7 -101 -68q-6 -7 -14 -8.5t-14.5 3.5t-8 13t2.5 14zM222 677q-26 1 -48.5 -15.5t-31.5 -39.5q-8 -21 2 -35q10 -17 46 -21q32 -3 56.5 15t30.5 44q8 24 -4 39q-9 13 -36 17q-8 -4 -15 -4z" />
    <glyph glyph-name="ae" unicode="&#xe6;" horiz-adv-x="654" 
d="M358 366q19 -61 25 -148q109 13 149 75q34 55 13 116q-10 27 -28 42t-40 15q-56 1 -115 -96zM317 156q-30 87 -77 115q-56 32 -107 8q-48 -23 -70 -78q-23 -55 -4 -101q21 -50 88 -61q35 -7 88 34q39 30 82 83zM67 407q26 36 63.5 58.5t77.5 25.5q37 2 70 -15t62 -65
q71 96 138 95q36 0 63.5 -23.5t40.5 -60.5q13 -32 9 -74t-25 -77q-51 -80 -181 -93q1 -27 1 -36v-47v-3q1 -3 1.5 -6.5t1.5 -8.5q1 -3 1 -9q39 -28 83 -15q57 17 117 87q5 6 13.5 7t15 -4.5t7 -14t-4.5 -15.5q-68 -78 -137 -98q-93 -28 -155 61l-10 20q-34 -36 -60 -55
q-66 -50 -118 -42q-89 16 -119 86q-25 61 3 131q30 71 90 99q71 34 145 -10q36 -21 84 -98q-12 126 -37 181q-31 67 -97 63q-30 -2 -59.5 -19.5t-49.5 -46.5q-5 -7 -13 -8.5t-15 3.5t-8.5 13t2.5 14z" />
    <glyph glyph-name="ccedilla" unicode="&#xe7;" horiz-adv-x="390" 
d="M242 376q-14 53 -38 70q-18 12 -42 2q-26 -11 -51.5 -42.5t-38.5 -71.5q-19 -62 -17.5 -117t17.5 -96.5t42 -64.5q40 -36 87 -16q60 23 113 120q4 6 12 8.5t15 -1.5t9.5 -12t-1.5 -15q-60 -109 -133 -138q-5 -2 -24 -5q20 -36 24 -43q12 -26 9 -43q-4 -22 -31 -36
q-20 -10 -63 -21q-8 -2 -15.5 2t-9.5 12t2 15t12 9q41 11 55 19q4 1 11 8q-3 10 -6 17l-7 13l-10 16l-9 16q-2 4 -4 13q-37 9 -62 31q-52 47 -68 134q-17 88 13 187q16 46 47 85.5t67 54.5q44 18 80 -7q37 -25 54 -93q2 -9 -2 -15.5t-12.5 -8.5t-15.5 2t-9 12z" />
    <glyph glyph-name="egrave" unicode="&#xe8;" horiz-adv-x="389" 
d="M50 178q76 14 127.5 58.5t75.5 106.5q14 39 5 71q-7 33 -41 33q-32 0 -66 -33t-60 -88q-35 -70 -41 -148zM54 138q21 -58 51.5 -81t67.5 -23q38 0 75 24q36 24 59 69q4 9 11.5 11t15 -1.5t10 -11t-0.5 -15.5q-28 -55 -74 -86t-97 -30q-53 1 -95.5 36t-61.5 99
q-10 44 0.5 101.5t39.5 114.5q29 60 72 102q41 39 90 40q33 1 53 -16.5t27 -45.5q12 -45 -7 -94q-27 -75 -87.5 -126.5t-148.5 -66.5zM136 715q17 -19 42 -59q26 -37 40 -55q6 -6 5.5 -14t-6.5 -14t-14 -5t-14 7q-17 19 -44 59q-25 39 -40 55q-5 6 -4.5 14t7 14t14.5 5
t14 -7z" />
    <glyph glyph-name="eacute" unicode="&#xe9;" horiz-adv-x="389" 
d="M50 178q76 14 127.5 58.5t75.5 106.5q14 39 5 71q-7 33 -41 33q-32 0 -66 -33t-60 -88q-35 -70 -41 -148zM54 138q21 -58 51.5 -81t67.5 -23q38 0 75 24q36 24 59 69q4 9 11.5 11t15 -1.5t10 -11t-0.5 -15.5q-28 -55 -74 -86t-97 -30q-53 1 -95.5 36t-61.5 99
q-10 44 0.5 101.5t39.5 114.5q29 60 72 102q41 39 90 40q33 1 53 -16.5t27 -45.5q12 -45 -7 -94q-27 -75 -87.5 -126.5t-148.5 -66.5zM167 569q20 18 49 47l50 49q6 5 14 5t14 -6t6 -14.5t-6 -14.5l-49 -48q-31 -31 -53 -48q-6 -6 -14 -5t-13.5 7t-5 14.5t7.5 13.5z" />
    <glyph glyph-name="ecircumflex" unicode="&#xea;" horiz-adv-x="389" 
d="M50 178q76 14 127.5 58.5t75.5 106.5q14 39 5 71q-7 33 -41 33q-32 0 -66 -33t-60 -88q-35 -70 -41 -148zM54 138q21 -58 51.5 -81t67.5 -23q38 0 75 24q36 24 59 69q4 9 11.5 11t15 -1.5t10 -11t-0.5 -15.5q-28 -55 -74 -86t-97 -30q-53 1 -95.5 36t-61.5 99
q-10 44 0.5 101.5t39.5 114.5q29 60 72 102q41 39 90 40q33 1 53 -16.5t27 -45.5q12 -45 -7 -94q-27 -75 -87.5 -126.5t-148.5 -66.5zM87 567q23 19 70 72l30 34l10 11l4 4q-1 -2 -2 -2l5 5q1 1 3 2l1.5 1.5t4 1t8.5 -1.5l9 -6l2 -1l3 -4l9 -10l27 -32q43 -52 47 -55
q6 -6 6 -14.5t-6 -14.5t-14 -6t-15.5 7t-48.5 56l-25 30l-28 -31q-49 -56 -73 -76q-6 -6 -14.5 -5t-14 7t-5 14.5t6.5 13.5z" />
    <glyph glyph-name="edieresis" unicode="&#xeb;" horiz-adv-x="389" 
d="M50 178q76 14 127.5 58.5t75.5 106.5q14 39 5 71q-7 33 -41 33q-32 0 -66 -33t-60 -88q-35 -70 -41 -148zM54 138q21 -58 51.5 -81t67.5 -23q38 0 75 24q36 24 59 69q4 9 11.5 11t15 -1.5t10 -11t-0.5 -15.5q-28 -55 -74 -86t-97 -30q-53 1 -95.5 36t-61.5 99
q-10 44 0.5 101.5t39.5 114.5q29 60 72 102q41 39 90 40q33 1 53 -16.5t27 -45.5q12 -45 -7 -94q-27 -75 -87.5 -126.5t-148.5 -66.5zM172 599q0 -8 -6 -14t-14 -6t-14 6t-6 14t6 14t14 6t14 -6t6 -14zM283 594q0 -8 -6 -14t-14 -6t-14 6t-6 14t6 14t14 6t14 -6t6 -14z" />
    <glyph glyph-name="igrave" unicode="&#xec;" horiz-adv-x="174" 
d="M60 433q-6 -51 -7 -104t3.5 -109t10.5 -100.5t16 -110.5q1 -8 -4 -15t-13.5 -8t-15 4t-7.5 13q-10 66 -15.5 110.5t-10.5 102.5t-4 113t7 110q1 8 7.5 13t14.5 4t13 -7.5t5 -15.5zM0 669l27 -34l26 -33q11 -12 26 -27t32 -25q7 -5 8.5 -13.5t-3 -15t-13 -8t-15.5 2.5
q-17 13 -35 30t-29 30l-30 34l-25 32q-5 6 -4.5 14.5t7 14t15 4.5t13.5 -6z" />
    <glyph glyph-name="iacute" unicode="&#xed;" horiz-adv-x="208" 
d="M59 433q-6 -51 -7 -104t3.5 -109t10.5 -100.5t16 -110.5q1 -8 -4 -15t-13 -8t-15 4t-8 13q-10 66 -15.5 110.5t-10.5 102.5t-4 113t7 110q1 8 7.5 13t15 4t13.5 -7.5t4 -15.5zM-4 539l124 114q6 6 14 5t14 -7t5 -14.5t-7 -14.5q-26 -22 -122 -112q-7 -6 -15 -6t-13.5 6.5
t-5.5 14.5t6 14z" />
    <glyph glyph-name="icircumflex" unicode="&#xee;" horiz-adv-x="204" 
d="M60 433q-6 -51 -7 -104t3.5 -109t10.5 -100.5t16 -110.5q1 -8 -4 -15t-13.5 -8t-15 4t-7.5 13q-10 66 -15.5 110.5t-10.5 102.5t-4 113t7 110q1 8 7.5 13t14.5 4t13 -7.5t5 -15.5zM-61 553q32 28 64 63q13 15 17 18q13 12 25 13q14 0 26 -12q6 -6 16 -23l59 -82
q4 -7 3 -15t-7.5 -13t-15 -4t-12.5 8l-59 83l-8 16l-15 -15q-33 -38 -68 -67q-6 -6 -14 -5t-13.5 7t-5 14.5t7.5 13.5z" />
    <glyph glyph-name="idieresis" unicode="&#xef;" horiz-adv-x="157" 
d="M59 433q-6 -51 -7 -104t3.5 -109t10.5 -100.5t16 -110.5q1 -8 -4 -15t-13 -8t-15 4t-8 13q-10 66 -15.5 110.5t-10.5 102.5t-4 113t7 110q1 8 7.5 13t15 4t13.5 -7.5t4 -15.5zM22 586q0 -8 -6 -14t-14 -6t-14 6t-6 14t6 14t14 6t14 -6t6 -14zM102 580q0 -8 -6 -14t-14 -6
t-14 6t-6 14t6 14t14 6t14 -6t6 -14z" />
    <glyph glyph-name="eth" unicode="&#xf0;" horiz-adv-x="417" 
d="M251 333q-128 -29 -170 -102q-18 -32 -19.5 -66t13.5 -60.5t43.5 -42.5t63.5 -14q37 2 80 45q37 40 33.5 101.5t-44.5 138.5zM152 463q-53 -46 -94 -70q-7 -4 -15 -2t-12.5 9t-2.5 15t9 13q35 21 85 62q-66 54 -112 60q-8 1 -13 8t-3.5 15t8 13t15.5 4q59 -9 136 -73
l77 72q6 5 14.5 5t14 -6t5.5 -14.5t-5 -14.5l-76 -70q51 -52 88 -111q37 6 71 9q8 1 14.5 -4.5t7 -14t-4.5 -14.5t-14 -7q-21 -1 -53 -6q29 -61 38.5 -106t1.5 -91q-10 -46 -43 -79q-53 -53 -104 -57q-50 -3 -88.5 19.5t-56.5 58t-17.5 81t23.5 84.5q48 81 183 119
q-37 51 -77 93z" />
    <glyph glyph-name="ntilde" unicode="&#xf1;" horiz-adv-x="427" 
d="M19 50q1 68 0 98q-1 31 -1.5 100.5t-3 120t-9.5 97.5q-1 8 3.5 15t13 8t15.5 -4t8 -13q10 -75 12 -248q44 91 80 143q32 46 70 73q28 19 54 22q34 4 57 -23q21 -23 34 -84q10 -46 15 -121q6 -83 6 -216q0 -8 -6 -14t-14 -6t-14 6t-6 14q0 136 -5 214q-5 70 -14 115
q-11 51 -25 66q-11 10 -24 9q-15 -1 -34 -15q-33 -23 -61 -62q-102 -149 -111 -298q0 -28 -1 -38v-4v-1v-1q0 -1 -2 -3q-1 -6 -4 -9q-7 -6 -15 -5t-14 7q-4 3 -4 6q0 2 -0.5 3.5l-0.5 1.5v13q0 16 1 33zM79 565q29 52 69 58q24 4 66 -13q34 -14 48 -14q25 3 48 34
q5 7 12.5 8t15 -4t8.5 -13t-4 -15q-34 -46 -77 -49q-24 -2 -66 15q-32 13 -45 11q-21 -3 -40 -38q-4 -6 -12 -8.5t-15 1.5t-9.5 12t1.5 15z" />
    <glyph glyph-name="ograve" unicode="&#xf2;" horiz-adv-x="387" 
d="M173 442q-8 -1 -12 -1q-2 0 -6 -0.5t-6 -0.5q-10 -1 -14 -4q-35 -18 -62 -81q-28 -65 -32 -137q-4 -79 23 -129t83 -54q71 -5 111 50q37 53 36 136q-1 73 -32.5 134.5t-88.5 86.5zM123 472q5 14 11.5 17.5t13.5 2.5q59 -11 102 -54.5t63 -98.5q20 -57 21 -117
q2 -97 -44 -160q-53 -74 -145 -67q-43 4 -72.5 24.5t-45 53.5t-22 70t-4.5 76q5 81 35 152q34 76 81 101q-1 0 6 0zM89 662l28 -25l30 -27q10 -9 26.5 -21.5t32.5 -23.5q7 -4 8.5 -11.5t-2.5 -15t-12 -9t-16 3.5q-16 9 -34.5 23.5t-27.5 22.5l-32 28q-22 20 -27 25
q-6 6 -7 14t5 14t14 7t14 -5z" />
    <glyph glyph-name="oacute" unicode="&#xf3;" horiz-adv-x="387" 
d="M173 442q-8 -1 -12 -1q-2 0 -6 -0.5t-6 -0.5q-10 -1 -14 -4q-35 -18 -62 -81q-28 -65 -32 -137q-4 -79 23 -129t83 -54q71 -5 111 50q37 53 36 136q-1 73 -32.5 134.5t-88.5 86.5zM123 472q5 14 11.5 17.5t13.5 2.5q59 -11 102 -54.5t63 -98.5q20 -57 21 -117
q2 -97 -44 -160q-53 -74 -145 -67q-43 4 -72.5 24.5t-45 53.5t-22 70t-4.5 76q5 81 35 152q34 76 81 101q-1 0 6 0zM85 555q34 43 119 126q6 5 14.5 5t14 -6t5.5 -14.5t-6 -14.5q-83 -79 -115 -120q-5 -7 -13.5 -8t-15 4t-7.5 13.5t4 14.5z" />
    <glyph glyph-name="ocircumflex" unicode="&#xf4;" horiz-adv-x="387" 
d="M173 442q-8 -1 -12 -1q-2 0 -6 -0.5t-6 -0.5q-10 -1 -14 -4q-35 -18 -62 -81q-28 -65 -32 -137q-4 -79 23 -129t83 -54q71 -5 111 50q37 53 36 136q-1 73 -32.5 134.5t-88.5 86.5zM123 472q5 14 11.5 17.5t13.5 2.5q59 -11 102 -54.5t63 -98.5q20 -57 21 -117
q2 -97 -44 -160q-53 -74 -145 -67q-43 4 -72.5 24.5t-45 53.5t-22 70t-4.5 76q5 81 35 152q34 76 81 101q-1 0 6 0zM54 548q32 29 63 74q17 24 21 29q12 14 22 20q16 9 34 1q11 -6 25 -23q19 -24 65 -104q4 -7 2 -15t-9 -12t-15 -2t-12 9q-46 79 -62 99l-8 13l-11 -10
l-19 -27q-34 -49 -68 -82q-6 -5 -14.5 -5t-14 6t-5.5 14.5t6 14.5z" />
    <glyph glyph-name="otilde" unicode="&#xf5;" horiz-adv-x="387" 
d="M173 442q-8 -1 -12 -1q-2 0 -6 -0.5t-6 -0.5q-10 -1 -14 -4q-35 -18 -62 -81q-28 -65 -32 -137q-4 -79 23 -129t83 -54q71 -5 111 50q37 53 36 136q-1 73 -32.5 134.5t-88.5 86.5zM123 472q5 14 11.5 17.5t13.5 2.5q59 -11 102 -54.5t63 -98.5q20 -57 21 -117
q2 -97 -44 -160q-53 -74 -145 -67q-43 4 -72.5 24.5t-45 53.5t-22 70t-4.5 76q5 81 35 152q34 76 81 101q-1 0 6 0zM17 576q31 70 73 68q16 -1 35 -15q8 -6 26 -22q29 -27 43 -27q21 -1 50 47q5 6 13 8t15 -2t9 -12.5t-2 -15.5q-41 -67 -88 -65q-28 1 -67 37
q-18 16 -23.5 20.5t-14.5 7.5q-17 -10 -33 -45q-4 -8 -11.5 -10.5t-15 0.5t-10 11t0.5 15z" />
    <glyph glyph-name="odieresis" unicode="&#xf6;" horiz-adv-x="387" 
d="M173 442q-8 -1 -12 -1q-2 0 -6 -0.5t-6 -0.5q-10 -1 -14 -4q-35 -18 -62 -81q-28 -65 -32 -137q-4 -79 23 -129t83 -54q71 -5 111 50q37 53 36 136q-1 73 -32.5 134.5t-88.5 86.5zM123 472q5 14 11.5 17.5t13.5 2.5q59 -11 102 -54.5t63 -98.5q20 -57 21 -117
q2 -97 -44 -160q-53 -74 -145 -67q-43 4 -72.5 24.5t-45 53.5t-22 70t-4.5 76q5 81 35 152q34 76 81 101q-1 0 6 0zM130 579q0 -8 -6 -14t-14 -6t-14 6t-6 14t6 14t14 6t14 -6t6 -14zM230 572q0 -8 -6 -14t-14 -6t-14 6t-6 14t6 14t14 6t14 -6t6 -14z" />
    <glyph glyph-name="divide" unicode="&#xf7;" horiz-adv-x="438" 
d="M-7 325q27 2 90 6t98.5 6.5t87.5 4.5t95 2q8 0 14 -6t6 -14t-6 -14t-14 -6q-44 0 -95.5 -2t-86.5 -4.5t-96.5 -6.5t-89.5 -6q-8 -1 -14.5 5t-7 14t5 14t13.5 7zM186 441q0 -8 -6 -14t-14 -6t-14 6t-6 14t6 14t14 6t14 -6t6 -14zM198 193q0 -8 -6 -14t-14 -6t-14 6t-6 14
t6 14t14 6t14 -6t6 -14z" />
    <glyph glyph-name="oslash" unicode="&#xf8;" horiz-adv-x="459" 
d="M275 320q-33 90 -103 122q-8 -1 -13 -1l-5 -1h-6q-10 -1 -14 -4q-35 -18 -62 -81q-28 -65 -32 -138q-2 -47 10 -101q45 45 116 108zM287 276l-94 -83q-80 -71 -124 -114q33 -41 77 -44q71 -5 111 50q37 53 36 136q0 19 -6 55zM40 49l-43 -49q-5 -6 -13.5 -7t-15 4.5
t-7 14t4.5 14.5q23 27 54 60q-24 61 -20 133q5 81 35 152q33 76 80 101h7q5 14 11.5 17.5t12.5 2.5q104 -19 161 -143l65 61q6 6 14 6t14 -6t6 -14t-6 -14q-32 -33 -79 -75q11 -45 12 -85q2 -97 -44 -160q-53 -74 -146 -67q-60 5 -103 54z" />
    <glyph glyph-name="ugrave" unicode="&#xf9;" horiz-adv-x="417" 
d="M70 467q-19 -131 -11 -253q6 -83 26 -131q21 -50 58 -54q24 -3 46 29q23 32 41 94q24 87 34 199q2 16 3.5 42l1.5 26q2 16 3 22.5t2 10.5q0 2 2 4q6 10 15 11q10 1 18 -7q2 -2 3 -4t1 -3t1 -3v1v-2q0 -3 1 -7q0 -9 2 -23l8 -106q11 -149 45 -293q2 -8 -2 -15t-12 -9
t-15 2t-9 12q-21 88 -41 229q-17 -77 -23 -97q-19 -70 -45 -107q-37 -51 -86 -46q-58 7 -89 79q-22 53 -29 144q-9 126 11 261q1 8 8 13t15 4t13 -8t4 -15zM136 628l57 -76q5 -6 4 -14.5t-7.5 -13.5t-15 -4t-13.5 8l-57 76q-5 7 -4 15t8 13t15 4t13 -8z" />
    <glyph glyph-name="uacute" unicode="&#xfa;" horiz-adv-x="417" 
d="M70 467q-19 -131 -11 -253q6 -83 26 -131q21 -50 58 -54q24 -3 46 29q23 32 41 94q24 87 34 199q2 16 3.5 42l1.5 26q2 16 3 22.5t2 10.5q0 2 2 4q6 10 15 11q10 1 18 -7q2 -2 3 -4t1 -3t1 -3v1v-2q0 -3 1 -7q0 -9 2 -23l8 -106q11 -149 45 -293q2 -8 -2 -15t-12 -9
t-15 2t-9 12q-21 88 -41 229q-17 -77 -23 -97q-19 -70 -45 -107q-37 -51 -86 -46q-58 7 -89 79q-22 53 -29 144q-9 126 11 261q1 8 8 13t15 4t13 -8t4 -15zM152 544q18 16 48 51q35 41 48 55q6 6 14.5 6t14.5 -5.5t6 -14t-5 -14.5q-13 -13 -48 -53q-30 -35 -50 -55
q-6 -5 -14.5 -5t-14 6t-5.5 14.5t6 14.5z" />
    <glyph glyph-name="ucircumflex" unicode="&#xfb;" horiz-adv-x="417" 
d="M70 467q-19 -131 -11 -253q6 -83 26 -131q21 -50 58 -54q24 -3 46 29q23 32 41 94q24 87 34 199q2 16 3.5 42l1.5 26q2 16 3 22.5t2 10.5q0 2 2 4q6 10 15 11q10 1 18 -7q2 -2 3 -4t1 -3t1 -3v1v-2q0 -3 1 -7q0 -9 2 -23l8 -106q11 -149 45 -293q2 -8 -2 -15t-12 -9
t-15 2t-9 12q-21 88 -41 229q-17 -77 -23 -97q-19 -70 -45 -107q-37 -51 -86 -46q-58 7 -89 79q-22 53 -29 144q-9 126 11 261q1 8 8 13t15 4t13 -8t4 -15zM85 575l31 35l28 33q28 30 49 31q25 2 50 -31q12 -15 52 -78q4 -6 2.5 -14.5t-8.5 -12.5t-15.5 -2.5t-11.5 8.5
q-40 62 -50 75q-6 7 -16 18q-14 -12 -22.5 -20.5t-28.5 -32.5t-30 -37q-5 -5 -13.5 -6t-14.5 4.5t-7 14t5 15.5z" />
    <glyph glyph-name="udieresis" unicode="&#xfc;" horiz-adv-x="417" 
d="M70 467q-19 -131 -11 -253q6 -83 26 -131q21 -50 58 -54q24 -3 46 29q23 32 41 94q24 87 34 199q2 16 3.5 42l1.5 26q2 16 3 22.5t2 10.5q0 2 2 4q6 10 15 11q10 1 18 -7q2 -2 3 -4t1 -3t1 -3v1v-2q0 -3 1 -7q0 -9 2 -23l8 -106q11 -149 45 -293q2 -8 -2 -15t-12 -9
t-15 2t-9 12q-21 88 -41 229q-17 -77 -23 -97q-19 -70 -45 -107q-37 -51 -86 -46q-58 7 -89 79q-22 53 -29 144q-9 126 11 261q1 8 8 13t15 4t13 -8t4 -15zM133 574q0 -8 -6 -14t-14 -6t-14 6t-6 14t6 14t14 6t14 -6t6 -14zM244 571q0 -8 -6 -14t-14 -6t-14 6t-6 14t6 14
t14 6t14 -6t6 -14z" />
    <glyph glyph-name="yacute" unicode="&#xfd;" horiz-adv-x="414" 
d="M362 471q-33 -146 -114 -342q-95 -234 -173 -305q-6 -6 -14 -5t-13.5 7t-5 14t6.5 14q48 44 112 176q-31 79 -81 222.5t-73 204.5q-3 9 0.5 16.5t11 10t15 -0.5t10.5 -10q24 -63 66.5 -186.5t74.5 -207.5l27 64q79 195 111 338q1 8 8 12t15.5 2.5t13 -8.5t2.5 -16z
M148 551q19 13 51 42l53 44q7 5 15 4t13 -8t4 -15t-8 -13l-50 -42l-54 -44q-6 -5 -14 -4t-13 8t-4 15t7 13z" />
    <glyph glyph-name="thorn" unicode="&#xfe;" horiz-adv-x="421" 
d="M76 21q-6 -103 -14 -185q-1 -8 -7.5 -13.5t-14.5 -4.5t-13.5 7.5t-4.5 14.5q10 104 15 231t6 200.5t0 240t-1 210.5q0 8 6 14t14 6t14 -6t6 -14q0 -54 0.5 -153.5t0.5 -162.5q87 108 162 90q34 -7 60 -35t42 -68q16 -38 19.5 -83.5t-7 -92.5t-40 -92t-75.5 -77
q-23 -15 -47.5 -25t-54 -14t-66.5 12zM83 306q-1 -130 -6 -239q33 -22 71 -17q35 5 73 32q40 27 66 65q25 39 33.5 79t6.5 79q-3 39 -17 74q-13 33 -32.5 53t-42.5 26q-52 11 -106 -59q-29 -37 -46 -93z" />
    <glyph glyph-name="ydieresis" unicode="&#xff;" horiz-adv-x="414" 
d="M362 471q-33 -146 -114 -342q-95 -234 -173 -305q-6 -6 -14 -5t-13.5 7t-5 14t6.5 14q48 44 112 176q-31 79 -81 222.5t-73 204.5q-3 9 0.5 16.5t11 10t15 -0.5t10.5 -10q24 -63 66.5 -186.5t74.5 -207.5l27 64q79 195 111 338q1 8 8 12t15.5 2.5t13 -8.5t2.5 -16z
M150 568q0 -8 -6 -14t-14 -6t-14 6t-6 14t6 14t14 6t14 -6t6 -14zM255 574q0 -8 -6 -14t-14 -6t-14 6t-6 14t6 14t14 6t14 -6t6 -14z" />
    <glyph glyph-name="OE" unicode="&#x152;" horiz-adv-x="678" 
d="M245 658q-40 -6 -44 -8q-59 -22 -98 -121q-41 -97 -43 -215q-2 -121 40 -200q46 -83 133 -85q76 -2 121 80.5t48 206.5q2 124 -38 220q-43 99 -113 120q-2 0 -6 2zM323 674q46 1 114 10q13 2 37 5l43 5l37 5q8 1 14.5 -4t7.5 -13.5t-4 -15t-14 -7.5q-17 -2 -36 -5l-43 -5
q-23 -3 -36 -5q-43 -5 -92 -10q33 -43 50 -83q40 -96 41 -226q44 1 115 8q8 1 14.5 -4.5t7.5 -13.5t-4.5 -14.5t-13.5 -7.5q-81 -7 -120 -8q-10 -119 -51 -193q-8 -14 -26 -41q146 2 238 15q8 1 15 -4t8 -13t-4.5 -15t-13.5 -8q-111 -15 -274 -15q-4 0 -12 3
q-43 -26 -90 -25q-109 3 -166 107q-47 86 -45 219q2 125 45 229q48 114 120 144q9 2 20 4.5t23 4t13 1.5q9 2 18 -4h4q23 -6 49 -23q8 3 11 3z" />
    <glyph glyph-name="oe" unicode="&#x153;" horiz-adv-x="630" 
d="M173 442q-8 -1 -12 -1q-2 0 -6 -0.5t-6 -0.5q-10 -1 -14 -4q-35 -18 -62 -81q-28 -65 -32 -137q-4 -79 23 -129t83 -54q71 -5 111 50q37 53 36 136q-1 73 -32.5 134.5t-88.5 86.5zM332 171q90 21 137 86q30 42 34.5 81t-8.5 62t-34 35q-16 8 -34.5 7.5t-39.5 -9.5
t-39.5 -34.5t-32.5 -67.5q18 -55 19 -109q0 -19 -2 -51zM278 46q-58 -57 -133 -51q-43 4 -72.5 24.5t-45 53.5t-22 70t-4.5 76q5 81 35 152q34 76 81 101q-1 0 6 0q5 14 11.5 17.5t13.5 2.5q84 -16 145 -108q41 73 91.5 92t94.5 -6q56 -29 65.5 -93.5t-43.5 -141.5
q-61 -86 -167 -104h-11q-8 -25 -18 -46q23 -47 52 -59q28 -12 62.5 0t67 42t53.5 65q4 7 12 9t15 -2t9 -12t-2 -15q-23 -41 -61 -75t-80 -50q-50 -16 -91 1q-33 14 -64 57z" />
    <glyph glyph-name="quoteleft" unicode="&#x2018;" horiz-adv-x="196" 
d="M134 733q-95 -68 -106 -156q-1 -7 -8 -12.5t-15 -4.5t-13 8t-4 15q14 103 122 182q7 5 15 4t13 -8t4 -15t-8 -13z" />
    <glyph glyph-name="quoteright" unicode="&#x2019;" horiz-adv-x="202" 
d="M148 741q-5 -32 -16.5 -59.5t-30.5 -51.5t-36 -41t-45 -39q-6 -6 -14 -5t-13.5 7t-5 14.5t7.5 13.5q52 44 79 80t34 87q1 7 7.5 12.5t14.5 4.5t13 -8t5 -15z" />
    <glyph glyph-name="quotedblleft" unicode="&#x201c;" horiz-adv-x="291" 
d="M128 721q-83 -46 -83 -155q0 -8 -6 -14t-14 -6t-14 6t-6 14q0 62 25.5 112t79.5 77q7 4 14.5 2t11.5 -9.5t2 -15t-10 -11.5zM223 700q-46 -18 -70.5 -58.5t-24.5 -95.5q0 -8 -6 -14t-14 -6t-14 6t-6 14q0 65 30.5 116t90.5 76q7 2 14.5 -1t10.5 -10.5t0 -15t-11 -11.5z
" />
    <glyph glyph-name="quotedblright" unicode="&#x201d;" horiz-adv-x="292" 
d="M137 740q3 -65 -25 -112.5t-84 -92.5q-6 -6 -14.5 -5t-13.5 7.5t-4.5 15t7.5 12.5q50 41 73 80t21 94q0 8 5 14t13.5 6.5t14.5 -5t7 -14.5zM236 735q11 -74 -20 -129.5t-95 -103.5q-7 -5 -15.5 -4t-13.5 8t-3.5 15t8.5 13q57 43 82 89q26 45 17 106q-2 8 3 15t13.5 8
t15.5 -4t8 -13z" />
    <glyph glyph-name="perthousand" unicode="&#x2030;" horiz-adv-x="630" 
d="M574 680q-248 -313 -375 -663q-3 -8 -10.5 -11t-15 -0.5t-11 10t-0.5 15.5q129 355 380 675q5 6 13.5 7t15 -4t7.5 -13.5t-4 -15.5zM213 490q0 -8 -6 -14t-14 -6t-14 6t-6 14t6 14t14 6t14 -6t6 -14zM450 102q0 -8 -6 -14t-14 -6t-14 6t-6 14t6 14t14 6t14 -6t6 -14z
M569 90q0 -8 -6 -14t-14 -6t-14 6t-6 14t6 14t14 6t14 -6t6 -14z" />
    <glyph glyph-name="Euro" unicode="&#x20ac;" horiz-adv-x="679" 
d="M28 420q45 -4 117 -2q10 54 23 96q21 62 59.5 112.5t85.5 70.5q53 22 101 -6q50 -28 81 -109q3 -8 -0.5 -15.5t-11 -10.5t-15 0.5t-10.5 10.5q-26 68 -64 90q-31 17 -66 2q-37 -15 -70 -58t-51 -99q-11 -33 -21 -83q82 5 117 5q8 0 14 -6t6 -14t-6 -14t-14 -6
q-34 0 -123 -4q-6 -59 -4 -104q1 -9 1 -26q76 3 128 3q8 0 14 -6t6 -14t-6 -14t-14 -6q-49 0 -121 -2q22 -90 68 -136q24 -23 67 -35q92 -23 169 54q66 66 97 171q3 8 10.5 11.5t15.5 1.5t11.5 -9.5t1.5 -15.5q-35 -115 -108 -188q-93 -92 -206 -63q-54 14 -86 45
q-58 57 -80 161l-69 -3q-39 -2 -49.5 -3t-16.5 5t-6.5 14t5 14t15.5 7t47 3l67 4q0 17 -1 26q-2 44 4 102q-70 -1 -116 3q-8 1 -13.5 7t-5 14.5t7 14t15.5 4.5z" />
    <glyph glyph-name="trademark" unicode="&#x2122;" horiz-adv-x="721" 
d="M0 620q39 9 110 31q79 25 113 33q8 2 15 -2t9 -12t-2.5 -15t-12.5 -9q-34 -8 -101 -30q8 -61 13 -162q7 -117 14 -172q1 -9 -4 -15.5t-13.5 -7.5t-14.5 4t-8 13q-7 58 -14 176q-6 106 -11 152q-53 -15 -85 -22q-8 -2 -15 2t-8.5 12.5t2.5 15.5t13 8zM325 292q0 49 -6 218
q-3 65 -3 92v30q0 6 1 9q1 4 2 7q7 12 19 12t20 -11q4 -4 7 -10q5 -11 13 -32l12 -32q12 -32 19 -49q20 -45 44 -75l9 16l8 32q4 13 20 87q12 58 20 83q7 19 12 29q5 8 11 12q12 8 24 3q7 -3 11 -10q2 -2 3 -5l5 -15q5 -15 11 -42q10 -38 29 -126q42 -197 51 -221
q3 -8 -0.5 -15.5t-11 -10t-15.5 0.5t-10 11q-8 21 -54 226l-32 143l-15 -71q-19 -85 -20 -89q-5 -21 -10 -34q-6 -18 -13 -25q-17 -19 -39 -16q-17 3 -32 20q-17 20 -58 108q8 -197 8 -250q0 -8 -6 -14t-13.5 -6t-14 6t-6.5 14z" />
    <glyph glyph-name="uni3000" unicode="&#x3000;" horiz-adv-x="1000" 
 />
    <glyph glyph-name="uniF8FF" unicode="&#xf8ff;" horiz-adv-x="946" 
d="M125 362q4 44 5 63q0 22 1 27q10 64 42 119.5t81 115.5q6 6 14 7t14.5 -4.5t7 -14t-4.5 -13.5q-99 -120 -114 -215q-1 -3 -1 -24q-1 -23 -3 -38q-3 -24 -8 -40q-8 -24 -25 -33q-16 -10 -30 2q-6 6 -10 16q-2 4 -6 13q-1 7 -3 9q-9 14 -16 28.5t-14.5 33t-13 30.5
t-12.5 33.5t-10.5 31t-10.5 34.5t-9 31t-9.5 34t-8.5 31q-2 8 2 15t12 9t15.5 -2t9.5 -12q1 -3 8 -29l9 -31l8 -28q6 -23 8.5 -31t9 -27t10.5 -31l10 -26q6 -15 12.5 -28t29.5 -56zM-28 237q26 -39 55 -99q22 11 32 19q27 21 34 37q7 17 -8 39q-3 3 -17 9q-39 16 -96 -5z
M324 13q-16 32 -30 47q-75 81 -247 37q17 -41 32 -77q106 33 245 -7zM312 -25q-119 36 -219 8q5 -17 7 -23q2 -8 -2 -15t-12 -9t-15 2t-10 12l-3 18q-28 -17 -43 -28q-20 -18 -22 -26q-3 -16 3 -25q6 -10 24 -16q38 -12 104 0q69 12 122 41q44 25 66 61zM363 241
q-11 7 -12 12q-12 24 -27 33q-12 -5 -17 -15q-12 -22 -12 -53t14 -54q8 -10 17 -14l9 4q18 14 26 43l-2 16q-2 12 0 20q0 1 4 8zM721 309q33 24 41 33q10 12 17 70q-43 -43 -49 -68q-1 -5 -9 -35zM-163 176q131 147 246 104q27 -10 36 -24q26 -40 10 -78q-1 -4 -16 -26
q93 6 173 -30q-33 62 -31.5 100.5t17.5 68.5q23 38 57 35t58 -58q2 -3 2 -12q8 -5 11 -7q5 -4 9 -10q2 -3 10 -19q5 -12 22 -29q9 21 9.5 32.5t1.5 16.5v3q0 3 -1 7t-1 5q-2 10 -1 15q3 13 13.5 17t20.5 -2q4 -2 8 -7q3 -3 5 -7q1 -2 10 -16q11 -18 27 -42q13 27 17 43
q7 24 8 88q1 24 -1 49v13v4q0 4 3 8q4 6 12 8q7 3 14 -1q5 -2 9 -7.5t20 -42.5q26 127 76 166q43 33 79 5q23 -18 40 -70l52 27q7 3 15.5 1t12 -9.5t1 -15.5t-9.5 -12l-65 -33q2 -27 1 -45q-4 -50 -24 -72q-30 -37 -64 -41q-28 -3 -38 23q-9 19 0 55q13 52 74 94l9 5
q-3 10 -3 12q-11 38 -25 49q-12 10 -31 -5q-48 -37 -60 -155q-4 -39 -3 -83q8 -19 23.5 -52t22.5 -50q15 -34 18 -43q7 -20 10 -33q1 -9 0 -17q-2 -14 -16 -20q-27 -10 -50 10q-14 12 -23 38q-7 16 -15 58t-15 222q-16 -131 -18 -136q-13 -54 -37 -66q-26 -14 -62 22
q-13 -34 -26 -43q-17 -10 -40 -3q-9 2 -28 19q-17 -40 -36 -54q-17 -13 -65 -11l29 -24q26 -29 32 -56q3 -12 1 -31q25 -11 43 -20q7 -4 9.5 -12t-1 -15.5t-12 -9.5t-15.5 1l-32 17q-23 -50 -84 -82q-60 -33 -133 -46q-78 -15 -125 1q-30 10 -44 32q-16 23 -9 55q5 23 36 48
q20 18 52 34l-33 79q-7 2 -9 4q-14 7 -12 21q0 4 4 12q-30 60 -54 96q-38 -29 -72 -66q-5 -6 -13.5 -7t-14.5 5t-6.5 14t5.5 14zM320 441q0 -8 -6 -14t-14 -6t-14 6t-6 14t6 14t14 6t14 -6t6 -14z" />
  </font>
</defs>
</svg>
